<svg width="25" height="25" viewBox="0 0 25 25" fill="none" xmlns="http://www.w3.org/2000/svg">
<mask id="mask0_11796_7668" style="mask-type:alpha" maskUnits="userSpaceOnUse" x="0" y="0" width="25" height="25">
<rect x="0.382568" y="0.189957" width="24" height="24" fill="#D9D9D9"/>
</mask>
<g mask="url(#mask0_11796_7668)">
<path d="M6.38257 20.19C5.28257 20.19 4.3409 19.7983 3.55757 19.015C2.77424 18.2316 2.38257 17.29 2.38257 16.19V8.18996C2.38257 7.08996 2.77424 6.14829 3.55757 5.36496C4.3409 4.58162 5.28257 4.18996 6.38257 4.18996H18.3826C19.4826 4.18996 20.4242 4.58162 21.2076 5.36496C21.9909 6.14829 22.3826 7.08996 22.3826 8.18996V16.19C22.3826 17.29 21.9909 18.2316 21.2076 19.015C20.4242 19.7983 19.4826 20.19 18.3826 20.19H6.38257ZM6.38257 8.18996H18.3826C18.7492 8.18996 19.0992 8.23162 19.4326 8.31496C19.7659 8.39829 20.0826 8.53162 20.3826 8.71496V8.18996C20.3826 7.63996 20.1867 7.16912 19.7951 6.77746C19.4034 6.38579 18.9326 6.18996 18.3826 6.18996H6.38257C5.83257 6.18996 5.36174 6.38579 4.97007 6.77746C4.5784 7.16912 4.38257 7.63996 4.38257 8.18996V8.71496C4.68257 8.53162 4.99924 8.39829 5.33257 8.31496C5.6659 8.23162 6.0159 8.18996 6.38257 8.18996ZM4.53257 11.44L15.6576 14.14C15.8076 14.1733 15.9576 14.1733 16.1076 14.14C16.2576 14.1066 16.3992 14.04 16.5326 13.94L20.0076 11.04C19.8242 10.79 19.5909 10.5858 19.3076 10.4275C19.0242 10.2691 18.7159 10.19 18.3826 10.19H6.38257C5.94923 10.19 5.57007 10.3025 5.24507 10.5275C4.92007 10.7525 4.68257 11.0566 4.53257 11.44Z" fill="#9FBFE5" fill-opacity="0.996078"/>
</g>
</svg>
