<?xml version="1.0" encoding="UTF-8"?>
<svg id="svg4458" xmlns="http://www.w3.org/2000/svg" viewBox="0 0 423.41 106.76">
  <defs>
    <style>
      .cls-1 {
        fill: #fff;
      }

      .cls-23456 {
        fill: #1677ff;
      }

      .cls-345678 {
        fill: #e1e1e1;
      }
    </style>
  </defs>
  <g id="g3989">
    <path id="path3991" class="cls-23456" d="M88.91,0H16.96C7.59,0,0,7.66,0,17.1v72.56c0,9.44,7.59,17.1,16.96,17.1h71.95c9.37,0,16.95-7.66,16.95-17.1V17.1c0-9.45-7.58-17.1-16.95-17.1"/>
  </g>
  <g id="g3993">
    <path id="path3995" class="cls-1" d="M28.6,82.1c-16.47,0-21.34-13.08-13.2-20.24,2.72-2.42,7.68-3.6,10.32-3.86,9.78-.98,18.84,2.79,29.53,8.05-7.51,9.88-17.08,16.06-26.65,16.06M87.16,67.04c-4.24-1.43-9.92-3.62-16.25-5.93,3.8-6.67,6.84-14.26,8.83-22.51h-20.87v-7.58h25.56v-4.23h-25.56v-12.64h-10.43c-1.83,0-1.83,1.82-1.83,1.82v10.81h-25.85v4.23h25.85v7.58h-21.35v4.23h41.4c-1.51,5.26-3.55,10.21-5.96,14.7-13.43-4.47-27.77-8.09-36.77-5.86-5.76,1.43-9.47,3.99-11.65,6.66-10,12.27-2.83,30.91,18.29,30.91,12.49,0,24.52-7.02,33.84-18.59,13.91,6.74,41.44,18.32,41.44,18.32v-16.5s-3.46-.28-18.7-5.43"/>
  </g>
  <g id="g3997">
    <path id="path3999" class="cls-23456" d="M229.87,15.63c0,5.52,4.04,9.24,9.67,9.24s9.67-3.72,9.67-9.24-4.04-9.24-9.67-9.24-9.67,3.82-9.67,9.24"/>
  </g>
  <path id="path4001" class="cls-345678" d="M202.89,86.27h16.78V8.72h-16.78v77.54Z"/>
  <g id="g4003">
    <path id="path4005" class="cls-345678" d="M149.03,59.39l9.98-34.52h.43l9.45,34.52h-19.86ZM173.46,11.38h-22.52l-25.17,74.89h15.51l4.25-14.66h26.66l4.03,14.66h19.86l-22.62-74.89Z"/>
  </g>
  <path id="path4007" class="cls-345678" d="M231.14,86.27h16.78V29.33h-16.78v56.93Z"/>
  <g id="g4009">
    <path id="path4011" class="cls-345678" d="M423.3,29.44l.1-.11h-15.83l-9.98,34.63h-.53l-11.47-34.63h-18.8l22.63,57.15-9.45,17.42v.43h14.76l28.57-74.89Z"/>
  </g>
  <g id="g4013">
    <path id="path4015" class="cls-345678" d="M279.05,76.49c-1.91,0-3.72-.21-5.74-.85v-30.8c3.51-2.44,6.37-3.61,9.98-3.61,6.27,0,11.26,4.99,11.26,15.61,0,13.6-7.33,19.65-15.51,19.65M289.67,28.16c-6.16,0-10.94,2.34-16.36,6.8v-5.63h-16.79v74.99h16.78v-18.59c3.19.85,6.16,1.27,9.77,1.27,14.98,0,28.47-11.05,28.47-30.7,0-17.63-9.77-28.15-21.88-28.15"/>
  </g>
  <g id="g4017">
    <path id="path4019" class="cls-345678" d="M346.72,72.46c-4.46,2.44-7.01,3.4-9.98,3.4-4.04,0-6.59-2.65-6.59-6.9,0-1.59.32-3.19,1.59-4.46,2.02-2.02,5.95-3.51,14.98-5.63v13.6ZM363.5,72.03v-23.79c0-12.96-7.65-20.08-21.14-20.08-8.6,0-14.55,1.49-25.39,4.78l2.97,13.07c9.88-4.46,14.23-6.37,18.8-6.37,5.52,0,7.97,3.93,7.97,9.99v.42c-19.23,3.61-25.17,5.63-28.89,9.35-2.76,2.76-3.93,6.69-3.93,11.26,0,10.94,8.5,16.78,16.47,16.78,5.95,0,10.73-2.23,17.21-7.12l1.17,5.95h16.78l-2.02-14.23Z"/>
  </g>
</svg>