<svg xmlns="http://www.w3.org/2000/svg" width="98" height="26" viewBox="0 0 98 26" fill="none">
  <g clip-path="url(#clip0_10404_8792)">
    <path d="M66.0555 -0.00195312H58.4661C57.9473 -0.00195312 57.5056 0.375639 57.4248 0.887965L54.3556 20.3485C54.2949 20.7326 54.5913 21.0805 54.9805 21.0805H58.8744C59.2373 21.0805 59.5474 20.8161 59.6033 20.4573L60.4741 14.9401C60.5546 14.4274 60.9964 14.0502 61.5158 14.0502H63.9175C68.9162 14.0502 71.8012 11.6308 72.5554 6.83565C72.8948 4.73893 72.569 3.09076 71.587 1.93752C70.5078 0.66864 68.5946 -0.00195312 66.0555 -0.00195312ZM66.9314 7.10545C66.5167 9.82978 64.4363 9.82978 62.4235 9.82978H61.2791L62.0821 4.74337C62.1308 4.43638 62.3959 4.20989 62.707 4.20989H63.2319C64.6017 4.20989 65.8962 4.20989 66.563 4.99032C66.9618 5.45694 67.0825 6.14902 66.9314 7.10545Z" fill="white"/>
    <path d="M11.9251 -0.00195312H4.33575C3.81694 -0.00195312 3.37522 0.375639 3.29404 0.887965L0.224864 20.3485C0.16449 20.7326 0.461243 21.0805 0.850092 21.0805H4.47389C4.9927 21.0805 5.43442 20.7029 5.5156 20.1902L6.34377 14.9401C6.42461 14.4274 6.86633 14.0502 7.38514 14.0502H9.78679C14.7859 14.0502 17.6709 11.6308 18.425 6.83565C18.7644 4.73893 18.4387 3.09076 17.457 1.93752C16.3768 0.66864 14.4639 -0.00195312 11.9251 -0.00195312ZM12.8007 7.10545C12.3859 9.82978 10.3053 9.82978 8.29314 9.82978H7.14808L7.95102 4.74337C7.99979 4.43638 8.26448 4.20989 8.5759 4.20989H9.10085C10.4707 4.20989 11.7648 4.20989 12.4316 4.99032C12.8307 5.45694 12.9515 6.14902 12.8007 7.10545Z" fill="white"/>
    <path d="M34.6091 7.01951H30.9755C30.6644 7.01951 30.3993 7.246 30.3506 7.55367L30.1906 8.56979L29.9365 8.20209C29.1492 7.05908 27.3953 6.67773 25.6438 6.67773C21.6291 6.67773 18.199 9.72031 17.5315 13.9881C17.1839 16.1165 17.6772 18.1512 18.8843 19.5708C19.9932 20.8755 21.5759 21.4185 23.4615 21.4185C26.6974 21.4185 28.4926 19.3392 28.4926 19.3392L28.3303 20.3495C28.2692 20.7336 28.566 21.0815 28.9551 21.0815H32.228C32.7468 21.0815 33.1881 20.7039 33.2693 20.1916L35.2344 7.75082C35.2944 7.36641 34.998 7.01951 34.6091 7.01951ZM29.5442 14.0931C29.1936 16.1697 27.5451 17.5635 25.4425 17.5635C24.3886 17.5635 23.5447 17.2244 23.0023 16.5828C22.4648 15.9463 22.2625 15.04 22.4331 14.0304C22.7602 11.9726 24.4353 10.5335 26.5057 10.5335C27.5376 10.5335 28.3756 10.8759 28.9285 11.5233C29.4852 12.1759 29.7038 13.0883 29.5442 14.0931Z" fill="white"/>
    <path d="M88.7393 7.01939H85.1056C84.7942 7.01939 84.5291 7.24588 84.4807 7.55355L84.3204 8.56967L84.0666 8.20197C83.279 7.05896 81.5254 6.67761 79.7739 6.67761C75.7589 6.67761 72.3292 9.72018 71.662 13.988C71.3141 16.1164 71.808 18.151 73.0148 19.5707C74.1237 20.8754 75.7067 21.4184 77.5919 21.4184C80.8279 21.4184 82.6231 19.3391 82.6231 19.3391L82.4607 20.3494C82.3997 20.7335 82.6961 21.0814 83.0856 21.0814H86.3584C86.8772 21.0814 87.3183 20.7038 87.3998 20.1915L89.3645 7.7507C89.4252 7.36628 89.1281 7.01939 88.7393 7.01939ZM83.675 14.093C83.324 16.1696 81.6759 17.5633 79.5734 17.5633C78.5187 17.5633 77.6755 17.2243 77.1328 16.5827C76.5956 15.9462 76.393 15.0399 76.5635 14.0303C76.891 11.9724 78.5654 10.5334 80.6359 10.5334C81.6673 10.5334 82.5054 10.8758 83.059 11.5232C83.615 12.1757 83.834 13.0882 83.675 14.093Z" fill="white"/>
    <path d="M53.9644 7.01953H50.3116C49.9623 7.01953 49.6359 7.19315 49.4391 7.48172L44.4004 14.9029L42.2648 7.77199C42.1308 7.32549 41.7205 7.01953 41.2549 7.01953H37.6641C37.2306 7.01953 36.9257 7.4459 37.0652 7.85658L41.0874 19.6626L37.3043 25C37.0072 25.4192 37.307 25.9988 37.8207 25.9988H41.4694C41.8156 25.9988 42.1393 25.8292 42.3361 25.5451L54.4842 8.0128C54.7749 7.59325 54.4744 7.01953 53.9644 7.01953Z" fill="white"/>
    <path d="M93.0232 0.531863L89.908 20.3485C89.8476 20.7326 90.144 21.0801 90.5329 21.0801H93.6658C94.1846 21.0801 94.6263 20.7025 94.7079 20.1902L97.7791 0.729698C97.8398 0.345625 97.5434 -0.00195159 97.1542 -0.00195159H93.6484C93.3367 -0.00263378 93.0716 0.224195 93.0232 0.531863Z" fill="white"/>
  </g>
  <defs>
    <clipPath id="clip0_10404_8792">
      <rect width="97.5697" height="26" fill="white" transform="translate(0.215088)"/>
    </clipPath>
  </defs>
</svg>