<svg xmlns="http://www.w3.org/2000/svg" width="24" height="25" viewBox="0 0 24 25" fill="none">
  <path d="M8.70005 17.8403C8.51671 17.657 8.42505 17.4237 8.42505 17.1403C8.42505 16.857 8.51671 16.6237 8.70005 16.4403L12.6 12.5403L8.70005 8.64033C8.51671 8.457 8.42505 8.22367 8.42505 7.94033C8.42505 7.657 8.51672 7.42367 8.70005 7.24033C8.88338 7.057 9.11671 6.96533 9.40005 6.96533C9.68338 6.96533 9.91672 7.057 10.1 7.24033L14.7 11.8403C14.8 11.9403 14.871 12.0487 14.913 12.1653C14.9544 12.282 14.975 12.407 14.975 12.5403C14.975 12.6737 14.9544 12.7987 14.913 12.9153C14.871 13.032 14.8 13.1403 14.7 13.2403L10.1 17.8403C9.91671 18.0237 9.68338 18.1153 9.40005 18.1153C9.11671 18.1153 8.88338 18.0237 8.70005 17.8403Z" fill="#9FBFE5" fill-opacity="0.996078"/>
</svg>