<svg width="16" height="17" viewBox="0 0 16 17" fill="none" xmlns="http://www.w3.org/2000/svg">
<mask id="mask0_11832_6929" style="mask-type:alpha" maskUnits="userSpaceOnUse" x="0" y="0" width="16" height="17">
<rect y="0.0403137" width="16" height="16" fill="#D9D9D9"/>
</mask>
<g mask="url(#mask0_11832_6929)">
<path d="M8 14.707C7.16667 14.707 6.38611 14.5486 5.65833 14.232C4.93056 13.9153 4.29722 13.4875 3.75833 12.9486C3.21944 12.4098 2.79167 11.7764 2.475 11.0486C2.15833 10.3209 2 9.54031 2 8.70698H3.33333C3.33333 10.007 3.78611 11.1098 4.69167 12.0153C5.59722 12.9209 6.7 13.3736 8 13.3736C9.3 13.3736 10.4028 12.9209 11.3083 12.0153C12.2139 11.1098 12.6667 10.007 12.6667 8.70698C12.6667 7.40698 12.2139 6.3042 11.3083 5.39864C10.4028 4.49309 9.3 4.04031 8 4.04031H7.9L8.93333 5.07364L8 6.04031L5.33333 3.37364L8 0.706978L8.93333 1.67364L7.9 2.70698H8C8.83333 2.70698 9.61389 2.86531 10.3417 3.18198C11.0694 3.49864 11.7028 3.92642 12.2417 4.46531C12.7806 5.0042 13.2083 5.63753 13.525 6.36531C13.8417 7.09309 14 7.87364 14 8.70698C14 9.54031 13.8417 10.3209 13.525 11.0486C13.2083 11.7764 12.7806 12.4098 12.2417 12.9486C11.7028 13.4875 11.0694 13.9153 10.3417 14.232C9.61389 14.5486 8.83333 14.707 8 14.707Z" fill="#9FBFE5" fill-opacity="0.996078"/>
</g>
</svg>
