<svg width="12" height="13" viewBox="0 0 12 13" fill="none" xmlns="http://www.w3.org/2000/svg">
<path d="M5.33317 12.6667C4.9665 12.6667 4.65262 12.5361 4.3915 12.275C4.13039 12.0139 3.99984 11.7 3.99984 11.3333V8.66667H1.99984C1.63317 8.66667 1.31928 8.53611 1.05817 8.275C0.797059 8.01389 0.666504 7.7 0.666504 7.33333V2.66667C0.666504 1.93333 0.927615 1.30556 1.44984 0.783333C1.97206 0.261111 2.59984 0 3.33317 0H11.3332V7.33333C11.3332 7.7 11.2026 8.01389 10.9415 8.275C10.6804 8.53611 10.3665 8.66667 9.99984 8.66667H7.99984V11.3333C7.99984 11.7 7.86928 12.0139 7.60817 12.275C7.34706 12.5361 7.03317 12.6667 6.6665 12.6667H5.33317ZM1.99984 4.66667H9.99984V1.33333H9.33317V4H7.99984V1.33333H7.33317V2.66667H5.99984V1.33333H3.33317C2.9665 1.33333 2.65262 1.46389 2.3915 1.725C2.13039 1.98611 1.99984 2.3 1.99984 2.66667V4.66667ZM1.99984 7.33333H9.99984V6H1.99984V7.33333Z" fill="#4E72B6"/>
</svg>
