<?xml version="1.0" encoding="UTF-8"?>
<svg id="Layer_1" data-name="Layer 1" width="36" height="36" xmlns="http://www.w3.org/2000/svg" viewBox="-6 -3 40 40">
  <defs>
    <!-- B 的蓝色动态渐变 -->
    <linearGradient id="beamio-B-anim-light" x1="0%" y1="0%" x2="100%">
      <stop offset="0%" stop-color="#0031CC" />
      <stop offset="50%" stop-color="#4C8DFF">
        <animate attributeName="offset" values="0;1;0" dur="2.2s" repeatCount="indefinite" />
      </stop>
      <stop offset="100%" stop-color="#0031CC" />
    </linearGradient>

    <clipPath id="lightCircleClip">
      <circle cx="60" cy="60" r="56" />
    </clipPath>
  </defs>
  <g class="cls-1">
    <g class="cls-1">
      <path class="cls-2" 
	  fill="url(#beamio-B-anim-light)"
	  d="M27.5,11.97c.95-1.26,1.43-2.74,1.43-4.46,0-1.28-.27-2.45-.82-3.5-.15-.28-.31-.54-.49-.79l-5.01,5.23c-.04.72-.27,1.41-.7,2.05-.48.7-1.19,1.21-2.15,1.52s-2.53.47-4.71.47h-4.85,0s1.54-7.33,1.54-7.33h4.93c1.77,0,2.89.04,3.36.13.83.16,1.47.49,1.92,1.01,0,0,0,0,0,.01l4.27-4.47c-.17-.13-.34-.26-.53-.37-1.05-.64-2.34-1.06-3.86-1.27-.91-.14-2.51-.21-4.81-.21H6.48L0,30.92h0s.02,0,.02,0l8.1-8.47.96-4.59h7.6c1.77,0,3.03.33,3.8,1s1.14,1.51,1.14,2.54c0,.85-.27,1.64-.79,2.4-.52.77-1.23,1.31-2.11,1.64-.87.33-2.6.49-5.17.49h-6.06l-4.77,4.99h11.86c3.22,0,5.76-.36,7.61-1.1,1.85-.74,3.31-1.93,4.36-3.6,1.05-1.66,1.58-3.43,1.58-5.28,0-1.41-.44-2.67-1.34-3.79-.9-1.12-2.13-1.9-3.73-2.33,2-.65,3.47-1.6,4.43-2.86Z"/>
    </g>
  </g>
</svg>