<svg width="24" height="24" viewBox="0 0 24 24" fill="none" xmlns="http://www.w3.org/2000/svg">
<g clip-path="url(#clip0_10215_9556)">
<path d="M10.8021 17.7674C10.8944 17.7675 10.9858 17.7858 11.0711 17.8213C11.1563 17.8567 11.2337 17.9086 11.2989 17.974C11.3641 18.0394 11.4158 18.1169 11.451 18.2023C11.4862 18.2876 11.5042 18.3791 11.5041 18.4714C11.504 18.5637 11.4857 18.6551 11.4502 18.7403C11.4148 18.8256 11.3629 18.903 11.2975 18.9682C11.2321 19.0334 11.1545 19.085 11.0692 19.1202C10.9839 19.1555 10.8924 19.1735 10.8001 19.1734C10.6137 19.1731 10.435 19.0988 10.3033 18.9668C10.1716 18.8347 10.0978 18.6558 10.0981 18.4694C10.0984 18.2829 10.1727 18.1042 10.3047 17.9726C10.4367 17.8409 10.6157 17.7671 10.8021 17.7674ZM21.8261 13.4204C21.7338 13.4203 21.6424 13.4021 21.5571 13.3667C21.4718 13.3313 21.3944 13.2794 21.3292 13.2141C21.2639 13.1488 21.2122 13.0713 21.1769 12.9859C21.1417 12.9006 21.1235 12.8092 21.1236 12.7169C21.1237 12.6246 21.1419 12.5332 21.1773 12.4479C21.2127 12.3626 21.2645 12.2852 21.3299 12.2199C21.3952 12.1547 21.4727 12.103 21.558 12.0677C21.6434 12.0324 21.7348 12.0143 21.8271 12.0144C22.0135 12.0145 22.1923 12.0887 22.3241 12.2206C22.4558 12.3526 22.5297 12.5314 22.5296 12.7179C22.5295 12.9043 22.4553 13.0831 22.3233 13.2148C22.1914 13.3466 22.0125 13.4205 21.8261 13.4204ZM21.8261 10.5444C21.2497 10.5449 20.697 10.7741 20.2894 11.1817C19.8818 11.5893 19.6526 12.142 19.6521 12.7184C19.6521 12.9514 19.6911 13.1834 19.7671 13.4094L12.5861 17.2324C12.387 16.9433 12.1206 16.7069 11.8098 16.5437C11.499 16.3804 11.1532 16.2952 10.8021 16.2954C9.9731 16.2954 9.2181 16.7704 8.8521 17.5114L2.4011 14.1094C1.7191 13.7514 1.2091 12.6294 1.2631 11.6074C1.2911 11.0744 1.4751 10.6604 1.7561 10.5004C1.9341 10.4004 2.1481 10.4084 2.3761 10.5274L2.4181 10.5504C4.1281 11.4504 9.7221 14.3974 9.9581 14.5064C10.3211 14.6754 10.5231 14.7434 11.1431 14.4494L22.7071 8.43538C22.8771 8.37138 23.0751 8.20838 23.0751 7.96138C23.0751 7.61938 22.7211 7.48438 22.7201 7.48438C22.0621 7.16938 21.0511 6.69638 20.0651 6.23438C17.9571 5.24738 15.5681 4.12938 14.5191 3.57938C13.6131 3.10538 12.8841 3.50538 12.7541 3.58538L12.5021 3.71038C7.7801 6.04538 1.4601 9.17538 1.1001 9.39438C0.457104 9.78638 0.0581037 10.5674 0.00610369 11.5364C-0.0738963 13.0734 0.709104 14.6764 1.8301 15.2634L8.6521 18.7814C8.72725 19.2982 8.98582 19.7706 9.38057 20.1125C9.77532 20.4544 10.2799 20.6428 10.8021 20.6434C11.3724 20.6424 11.9196 20.4177 12.326 20.0175C12.7323 19.6173 12.9654 19.0736 12.9751 18.5034L20.4891 14.4304C20.8691 14.7284 21.3421 14.8914 21.8261 14.8914C22.4025 14.8908 22.9552 14.6616 23.3628 14.254C23.7704 13.8465 23.9996 13.2938 24.0001 12.7174C23.9996 12.141 23.7704 11.5883 23.3628 11.1807C22.9552 10.7731 22.4025 10.5439 21.8261 10.5434" fill="white"/>
</g>
<defs>
<clipPath id="clip0_10215_9556">
<rect width="24" height="24" fill="white"/>
</clipPath>
</defs>
</svg>
