<svg width="56" height="56" viewBox="0 0 56 56" fill="none" xmlns="http://www.w3.org/2000/svg">
<path d="M40.2617 27.8478C39.3546 26.182 38.2958 24.9264 37.1069 24.0893C35.9313 23.2623 34.629 22.8438 33.2167 22.8438C32.7748 22.8438 32.3246 22.8838 31.8643 22.9655C31.2541 23.0722 30.627 23.2506 29.9851 23.5024C29.82 23.5658 29.7216 23.7542 29.7766 23.9343C30.6837 26.8574 30.7988 29.542 30.1401 31.748C29.8617 32.6835 29.4431 33.5322 28.8879 34.2776C28.2325 35.158 27.4121 35.8617 26.4634 36.3703C26.2032 36.5103 25.9314 36.6354 25.653 36.7455C24.6658 37.139 23.5653 37.3407 22.3897 37.3407H22.2747C21.9662 37.3407 21.8044 37.7176 22.0246 37.941C23.6687 39.6152 25.7197 41.0509 27.6739 41.9013C27.729 41.9263 27.784 41.9496 27.8374 41.973C27.8774 41.9896 27.9224 41.9996 27.9708 41.9996C28.0191 41.9996 28.0675 41.9913 28.1142 41.9713C28.1142 41.9713 28.1158 41.9713 28.1192 41.9713C28.561 41.7695 29.0063 41.5511 29.4548 41.3127C29.4548 41.3127 29.4548 41.3127 29.4581 41.3127C31.4608 40.2505 33.5018 38.8331 35.2743 37.1056C37.7689 34.6728 39.7298 31.623 40.2984 28.0779C40.3117 27.9979 40.2984 27.9195 40.2601 27.8528L40.2617 27.8478ZM34.6674 36.477C33.0783 38.0261 31.1423 39.4284 29.0663 40.5289C29.0579 40.5339 29.0479 40.5389 29.0379 40.5456C28.6861 40.7307 28.3259 40.9091 27.9674 41.0792C26.46 40.4139 24.8843 39.3767 23.5119 38.1545C24.3807 38.0628 25.2044 37.8627 25.9715 37.5558C26.2899 37.4291 26.5934 37.289 26.8736 37.1356C27.9441 36.5604 28.8562 35.775 29.5832 34.7978C30.1952 33.9741 30.6637 33.0337 30.9722 31.9965C31.6459 29.7371 31.5675 27.0324 30.7471 24.1494C31.1807 24.001 31.6042 23.8926 32.0144 23.8209C32.4229 23.7475 32.8265 23.7125 33.2167 23.7125C33.827 23.7125 34.4206 23.8042 34.9842 23.986C35.5495 24.1677 36.0914 24.4395 36.6033 24.798C37.6488 25.535 38.5926 26.6472 39.408 28.1063C38.8911 31.061 37.2536 33.9524 34.6657 36.4753L34.6674 36.477Z" fill="white"/>
<path d="M41.5542 18.9274C41.5492 18.8707 41.5409 18.814 41.5342 18.759C41.5209 18.6589 41.4642 18.5689 41.3892 18.5155C37.9809 16.0893 33.2002 14 28.4213 14C26.6804 14 24.9396 14.2768 23.2654 14.9171C23.1921 14.9455 23.1304 14.9955 23.0904 15.0622C22.0332 16.7913 21.4579 18.4405 21.3762 19.9612C21.3712 20.0763 21.3662 20.188 21.3662 20.3014C21.3562 22.1222 22.0565 23.773 23.4572 25.2237C23.7607 25.5372 24.0958 25.8424 24.4644 26.1375C24.5277 26.1892 24.6061 26.2142 24.6845 26.2142C24.7778 26.2142 24.8695 26.1775 24.9396 26.1042C24.9396 26.1042 24.9429 26.1042 24.9446 26.1008C25.5049 25.4939 26.0801 24.9453 26.6637 24.46C27.269 23.9548 27.886 23.5146 28.5063 23.1427C29.6435 22.4607 30.7974 22.0055 31.9429 21.7921C32.4515 21.697 32.9568 21.6487 33.4587 21.6487C33.7571 21.6487 34.0523 21.6654 34.3474 21.7004C35.6998 21.8588 36.942 22.3724 38.0142 23.1961C38.0942 23.2578 38.1726 23.3212 38.2493 23.3862C39.0464 24.0482 39.74 24.8886 40.3036 25.8891C40.372 26.0108 40.4904 26.0675 40.6088 26.0675C40.7572 26.0675 40.9039 25.9774 40.9506 25.8107C41.3225 24.465 41.5509 23.0377 41.6243 21.657C41.6743 20.7132 41.6526 19.7911 41.5542 18.929V18.9274ZM40.7539 21.6087C40.7038 22.5408 40.5804 23.4929 40.3903 24.4134C39.9218 23.7714 39.3932 23.2044 38.8096 22.7175C38.7312 22.6508 38.6495 22.5858 38.5595 22.5158C38.5545 22.5124 38.5495 22.5074 38.5445 22.5041C37.3322 21.572 35.9549 21.0084 34.4491 20.8333C34.124 20.7949 33.7905 20.7749 33.4587 20.7749C32.9101 20.7749 32.3465 20.8283 31.7829 20.9333C30.5356 21.1668 29.2833 21.6587 28.0594 22.394C27.3974 22.7892 26.7405 23.2595 26.1051 23.7897C25.6116 24.2016 25.1213 24.6585 24.6444 25.1504C24.4477 24.977 24.2593 24.7985 24.0842 24.6185C22.8502 23.3412 22.2283 21.8905 22.2366 20.3014C22.2366 20.198 22.2416 20.0946 22.245 20.0079C22.3167 18.6756 22.8186 17.2166 23.7407 15.6691C25.188 15.1389 26.7621 14.8704 28.4213 14.8704C33.9622 14.8704 38.7262 17.7218 40.6955 19.0925C40.7805 19.8862 40.8005 20.7316 40.7539 21.607V21.6087Z" fill="white"/>
<path d="M29.1816 31.0329C29.32 30.581 29.4267 30.1025 29.5034 29.5956C29.5318 29.4105 29.4084 29.2404 29.2366 29.2004C29.2366 29.2004 29.2355 29.2004 29.2333 29.2004C28.4096 29.0136 27.6325 28.7835 26.9055 28.5134C26.4603 28.3483 26.0318 28.1682 25.6249 27.9714C24.3476 27.3595 23.2654 26.6058 22.405 25.7287C21.678 24.9867 21.1111 24.1579 20.7209 23.2558C19.7304 20.9597 19.9622 18.3835 21.3695 16.0023C21.5129 15.7589 21.3278 15.4688 21.0694 15.4688C21.0394 15.4688 21.0093 15.4721 20.9793 15.4804C18.9567 16.0057 16.939 16.8994 15.3099 17.9833C15.0581 18.1517 14.813 18.3251 14.5812 18.5002C14.5095 18.5536 14.4545 18.6486 14.4445 18.742C14.4445 18.742 14.3995 19.1639 14.3661 19.7858C14.2277 22.3854 14.2527 31.2563 20.389 36.2421C20.4507 36.2921 20.5241 36.3188 20.6025 36.3205C20.7359 36.3238 20.8659 36.3255 20.996 36.3255C22.9419 36.3255 24.5811 35.9586 25.8884 35.2399C27.4925 34.3595 28.603 32.9472 29.1816 31.0329ZM20.996 35.4567C20.9326 35.4567 20.8676 35.4567 20.8009 35.4567C15.1232 30.7094 15.1048 22.3104 15.2366 19.8342C15.2549 19.5074 15.2749 19.2372 15.2899 19.0605C15.4517 18.9421 15.6201 18.8254 15.7918 18.7103C17.0424 17.8799 18.5215 17.1712 20.0489 16.666C19.0234 18.9738 18.9717 21.3983 19.9205 23.6027C20.349 24.5965 20.9743 25.5186 21.7814 26.3407C22.7035 27.2828 23.8607 28.0898 25.2164 28.7435C25.2264 28.7485 25.2364 28.7535 25.2447 28.7585C25.6649 28.9603 26.1201 29.1537 26.6004 29.3321C27.219 29.5622 27.876 29.764 28.558 29.9357C28.4996 30.2292 28.4279 30.5127 28.3462 30.7828C27.8376 32.4653 26.8688 33.7092 25.4665 34.4796C24.2876 35.1282 22.7819 35.4584 20.9943 35.4584L20.996 35.4567Z" fill="white"/>
</svg>
