<svg width="370" height="122" viewBox="0 0 370 122" fill="none" xmlns="http://www.w3.org/2000/svg">
<rect x="0.223971" y="0.223971" width="369.552" height="121.11" rx="6.9431" fill="#17181F"/>
<rect x="0.223971" y="0.223971" width="369.552" height="121.11" rx="6.9431" stroke="#303032" stroke-width="0.447942"/>
<path d="M128 16.6017V22.334H126.917V16.6017H128ZM130.311 19.0781V19.9324H127.717V19.0781H130.311ZM130.614 16.6017V17.4561H127.717V16.6017H130.614ZM132.433 18.9442V22.334H131.393V18.0742H132.378L132.433 18.9442ZM133.728 18.0466L133.712 19.0151C133.655 19.0046 133.589 18.9967 133.515 18.9915C133.445 18.9862 133.378 18.9836 133.315 18.9836C133.155 18.9836 133.014 19.0059 132.893 19.0505C132.773 19.0925 132.672 19.1542 132.59 19.2356C132.511 19.3169 132.451 19.4167 132.409 19.5348C132.367 19.6503 132.343 19.7815 132.338 19.9285L132.114 19.9009C132.114 19.6306 132.141 19.3799 132.197 19.149C132.252 18.918 132.332 18.7159 132.437 18.5427C132.542 18.3694 132.673 18.2356 132.83 18.1411C132.99 18.044 133.174 17.9954 133.382 17.9954C133.439 17.9954 133.501 18.0007 133.567 18.0112C133.635 18.019 133.689 18.0309 133.728 18.0466ZM136.357 22.4127C136.035 22.4127 135.745 22.3602 135.487 22.2552C135.23 22.1503 135.011 22.0046 134.83 21.8182C134.651 21.6293 134.514 21.4101 134.417 21.1608C134.322 20.9088 134.275 20.6385 134.275 20.3497V20.1923C134.275 19.8642 134.322 19.5663 134.417 19.2986C134.511 19.0282 134.645 18.7959 134.818 18.6017C134.991 18.4075 135.199 18.2579 135.44 18.1529C135.682 18.0479 135.948 17.9954 136.239 17.9954C136.541 17.9954 136.808 18.0466 137.039 18.149C137.27 18.2487 137.462 18.3904 137.617 18.5742C137.772 18.7579 137.889 18.9784 137.968 19.2356C138.046 19.4902 138.086 19.7723 138.086 20.082V20.519H134.747V19.8025H137.062V19.7238C137.057 19.5584 137.025 19.4075 136.968 19.271C136.91 19.1319 136.821 19.0217 136.7 18.9403C136.579 18.8563 136.423 18.8143 136.231 18.8143C136.077 18.8143 135.941 18.8484 135.826 18.9167C135.713 18.9823 135.619 19.0768 135.543 19.2001C135.469 19.3209 135.414 19.4652 135.377 19.6332C135.34 19.8012 135.322 19.9875 135.322 20.1923V20.3497C135.322 20.5282 135.346 20.6936 135.393 20.8458C135.443 20.998 135.515 21.1306 135.609 21.2434C135.707 21.3537 135.822 21.4403 135.956 21.5033C136.092 21.5636 136.247 21.5938 136.42 21.5938C136.638 21.5938 136.835 21.5518 137.011 21.4678C137.189 21.3812 137.344 21.2539 137.476 21.086L137.999 21.6293C137.91 21.7605 137.789 21.8865 137.637 22.0072C137.487 22.1279 137.306 22.2264 137.094 22.3025C136.881 22.376 136.636 22.4127 136.357 22.4127ZM140.92 22.4127C140.597 22.4127 140.307 22.3602 140.05 22.2552C139.793 22.1503 139.574 22.0046 139.392 21.8182C139.214 21.6293 139.076 21.4101 138.979 21.1608C138.885 20.9088 138.837 20.6385 138.837 20.3497V20.1923C138.837 19.8642 138.885 19.5663 138.979 19.2986C139.074 19.0282 139.207 18.7959 139.381 18.6017C139.554 18.4075 139.761 18.2579 140.003 18.1529C140.244 18.0479 140.511 17.9954 140.802 17.9954C141.104 17.9954 141.37 18.0466 141.601 18.149C141.832 18.2487 142.025 18.3904 142.18 18.5742C142.335 18.7579 142.451 18.9784 142.53 19.2356C142.609 19.4902 142.648 19.7723 142.648 20.082V20.519H139.31V19.8025H141.625V19.7238C141.619 19.5584 141.588 19.4075 141.53 19.271C141.472 19.1319 141.383 19.0217 141.263 18.9403C141.142 18.8563 140.986 18.8143 140.794 18.8143C140.639 18.8143 140.504 18.8484 140.389 18.9167C140.276 18.9823 140.181 19.0768 140.105 19.2001C140.032 19.3209 139.976 19.4652 139.94 19.6332C139.903 19.8012 139.885 19.9875 139.885 20.1923V20.3497C139.885 20.5282 139.908 20.6936 139.955 20.8458C140.005 20.998 140.077 21.1306 140.172 21.2434C140.269 21.3537 140.385 21.4403 140.518 21.5033C140.655 21.5636 140.81 21.5938 140.983 21.5938C141.201 21.5938 141.398 21.5518 141.574 21.4678C141.752 21.3812 141.907 21.2539 142.038 21.086L142.562 21.6293C142.472 21.7605 142.352 21.8865 142.2 22.0072C142.05 22.1279 141.869 22.2264 141.656 22.3025C141.444 22.376 141.198 22.4127 140.92 22.4127ZM148.143 16.6017V22.334H147.065V16.6017H148.143ZM149.923 16.6017V17.4561H145.305V16.6017H149.923ZM151.552 18.9442V22.334H150.513V18.0742H151.497L151.552 18.9442ZM152.848 18.0466L152.832 19.0151C152.774 19.0046 152.709 18.9967 152.635 18.9915C152.564 18.9862 152.497 18.9836 152.434 18.9836C152.274 18.9836 152.134 19.0059 152.013 19.0505C151.892 19.0925 151.791 19.1542 151.71 19.2356C151.631 19.3169 151.571 19.4167 151.529 19.5348C151.487 19.6503 151.463 19.7815 151.458 19.9285L151.234 19.9009C151.234 19.6306 151.261 19.3799 151.316 19.149C151.371 18.918 151.451 18.7159 151.556 18.5427C151.661 18.3694 151.793 18.2356 151.95 18.1411C152.11 18.044 152.294 17.9954 152.501 17.9954C152.559 17.9954 152.621 18.0007 152.686 18.0112C152.755 18.019 152.808 18.0309 152.848 18.0466ZM154.745 18.0742V22.334H153.702V18.0742H154.745ZM153.631 16.96C153.631 16.8051 153.683 16.6765 153.788 16.5742C153.896 16.4718 154.04 16.4206 154.221 16.4206C154.402 16.4206 154.545 16.4718 154.65 16.5742C154.758 16.6765 154.812 16.8051 154.812 16.96C154.812 17.1122 154.758 17.2395 154.65 17.3419C154.545 17.4442 154.402 17.4954 154.221 17.4954C154.04 17.4954 153.896 17.4442 153.788 17.3419C153.683 17.2395 153.631 17.1122 153.631 16.96ZM158.307 21.4285V19.4639C158.307 19.3196 158.283 19.1949 158.233 19.0899C158.183 18.9849 158.107 18.9036 158.004 18.8458C157.902 18.7881 157.772 18.7592 157.615 18.7592C157.475 18.7592 157.353 18.7828 157.248 18.8301C157.146 18.8773 157.067 18.9442 157.012 19.0309C156.957 19.1148 156.93 19.212 156.93 19.3222H155.886C155.886 19.1463 155.928 18.9797 156.012 18.8222C156.096 18.6621 156.216 18.5204 156.37 18.397C156.528 18.271 156.716 18.1726 156.933 18.1017C157.154 18.0309 157.401 17.9954 157.674 17.9954C157.996 17.9954 158.284 18.0505 158.536 18.1608C158.79 18.2684 158.99 18.4311 159.134 18.649C159.281 18.8668 159.355 19.1411 159.355 19.4718V21.3301C159.355 21.5426 159.368 21.7251 159.394 21.8773C159.423 22.0269 159.465 22.1568 159.52 22.2671V22.334H158.461C158.411 22.2264 158.373 22.0899 158.347 21.9245C158.321 21.7566 158.307 21.5912 158.307 21.4285ZM158.453 19.7395L158.461 20.3576H157.804C157.641 20.3576 157.498 20.3747 157.374 20.4088C157.251 20.4403 157.15 20.4875 157.071 20.5505C156.993 20.6109 156.933 20.6844 156.894 20.771C156.855 20.855 156.835 20.9508 156.835 21.0584C156.835 21.1634 156.859 21.2579 156.906 21.3419C156.956 21.4259 157.027 21.4928 157.119 21.5426C157.213 21.5899 157.323 21.6135 157.449 21.6135C157.633 21.6135 157.793 21.5768 157.93 21.5033C158.066 21.4272 158.172 21.3353 158.248 21.2277C158.325 21.1201 158.365 21.0177 158.37 20.9206L158.67 21.3694C158.633 21.477 158.578 21.5912 158.504 21.7119C158.431 21.8327 158.336 21.9455 158.221 22.0505C158.105 22.1555 157.966 22.2421 157.804 22.3104C157.641 22.3786 157.452 22.4127 157.237 22.4127C156.961 22.4127 156.714 22.3576 156.496 22.2474C156.279 22.1371 156.107 21.9862 155.981 21.7946C155.855 21.603 155.792 21.3852 155.792 21.1411C155.792 20.9154 155.834 20.7159 155.918 20.5427C156.002 20.3694 156.126 20.2238 156.292 20.1056C156.457 19.9849 156.662 19.8944 156.906 19.834C157.153 19.771 157.435 19.7395 157.752 19.7395H158.453ZM161.618 16.2868V22.334H160.575V16.2868H161.618ZM168.334 16.6017H169.416V20.4088C169.416 20.8471 169.322 21.2159 169.133 21.5151C168.944 21.8117 168.687 22.0361 168.361 22.1883C168.036 22.3379 167.666 22.4127 167.251 22.4127C166.831 22.4127 166.457 22.3379 166.129 22.1883C165.801 22.0361 165.544 21.8117 165.357 21.5151C165.171 21.2159 165.078 20.8471 165.078 20.4088V16.6017H166.16V20.4088C166.16 20.6765 166.205 20.8957 166.294 21.0663C166.384 21.2343 166.51 21.3589 166.672 21.4403C166.835 21.5217 167.028 21.5623 167.251 21.5623C167.477 21.5623 167.67 21.5217 167.83 21.4403C167.992 21.3589 168.117 21.2343 168.204 21.0663C168.29 20.8957 168.334 20.6765 168.334 20.4088V16.6017ZM172.932 21.1686C172.932 21.0794 172.908 20.9993 172.861 20.9285C172.814 20.8576 172.724 20.7933 172.593 20.7356C172.464 20.6752 172.275 20.6188 172.026 20.5663C171.806 20.519 171.602 20.46 171.416 20.3891C171.23 20.3182 171.069 20.2329 170.936 20.1332C170.802 20.0308 170.697 19.9114 170.621 19.7749C170.547 19.6358 170.51 19.4757 170.51 19.2946C170.51 19.1188 170.548 18.9534 170.625 18.7986C170.701 18.6411 170.811 18.5033 170.955 18.3852C171.1 18.2644 171.276 18.17 171.483 18.1017C171.69 18.0309 171.924 17.9954 172.184 17.9954C172.546 17.9954 172.857 18.0545 173.117 18.1726C173.379 18.2907 173.58 18.4534 173.719 18.6608C173.858 18.8655 173.928 19.0965 173.928 19.3537H172.888C172.888 19.2408 172.862 19.1385 172.81 19.0466C172.76 18.9547 172.682 18.8812 172.577 18.8261C172.472 18.7684 172.34 18.7395 172.18 18.7395C172.035 18.7395 171.913 18.7631 171.814 18.8104C171.716 18.8576 171.643 18.9193 171.593 18.9954C171.543 19.0715 171.518 19.1555 171.518 19.2474C171.518 19.3156 171.531 19.3773 171.558 19.4324C171.587 19.4849 171.632 19.5335 171.695 19.5781C171.758 19.6227 171.844 19.6634 171.951 19.7001C172.062 19.7369 172.197 19.7723 172.357 19.8064C172.674 19.8694 172.951 19.9534 173.188 20.0584C173.426 20.1608 173.613 20.2972 173.747 20.4679C173.88 20.6385 173.947 20.8563 173.947 21.1214C173.947 21.3104 173.907 21.4836 173.825 21.6411C173.744 21.7959 173.626 21.9311 173.471 22.0466C173.316 22.1621 173.131 22.2526 172.916 22.3182C172.701 22.3812 172.458 22.4127 172.188 22.4127C171.796 22.4127 171.466 22.3432 171.195 22.2041C170.925 22.0623 170.72 21.8839 170.581 21.6686C170.442 21.4508 170.373 21.2251 170.373 20.9915H171.369C171.377 21.1568 171.421 21.2894 171.503 21.3891C171.584 21.4888 171.686 21.561 171.81 21.6056C171.936 21.6476 172.068 21.6686 172.207 21.6686C172.365 21.6686 172.497 21.6476 172.605 21.6056C172.713 21.561 172.794 21.502 172.849 21.4285C172.904 21.3524 172.932 21.2657 172.932 21.1686ZM176.876 22.4127C176.553 22.4127 176.263 22.3602 176.006 22.2552C175.749 22.1503 175.53 22.0046 175.349 21.8182C175.17 21.6293 175.032 21.4101 174.935 21.1608C174.841 20.9088 174.793 20.6385 174.793 20.3497V20.1923C174.793 19.8642 174.841 19.5663 174.935 19.2986C175.03 19.0282 175.163 18.7959 175.337 18.6017C175.51 18.4075 175.717 18.2579 175.959 18.1529C176.2 18.0479 176.467 17.9954 176.758 17.9954C177.06 17.9954 177.326 18.0466 177.557 18.149C177.788 18.2487 177.981 18.3904 178.136 18.5742C178.291 18.7579 178.408 18.9784 178.486 19.2356C178.565 19.4902 178.604 19.7723 178.604 20.082V20.519H175.266V19.8025H177.581V19.7238C177.576 19.5584 177.544 19.4075 177.486 19.271C177.429 19.1319 177.339 19.0217 177.219 18.9403C177.098 18.8563 176.942 18.8143 176.75 18.8143C176.595 18.8143 176.46 18.8484 176.345 18.9167C176.232 18.9823 176.137 19.0768 176.061 19.2001C175.988 19.3209 175.933 19.4652 175.896 19.6332C175.859 19.8012 175.841 19.9875 175.841 20.1923V20.3497C175.841 20.5282 175.864 20.6936 175.912 20.8458C175.961 20.998 176.034 21.1306 176.128 21.2434C176.225 21.3537 176.341 21.4403 176.475 21.5033C176.611 21.5636 176.766 21.5938 176.939 21.5938C177.157 21.5938 177.354 21.5518 177.53 21.4678C177.708 21.3812 177.863 21.2539 177.994 21.086L178.518 21.6293C178.429 21.7605 178.308 21.8865 178.156 22.0072C178.006 22.1279 177.825 22.2264 177.612 22.3025C177.4 22.376 177.154 22.4127 176.876 22.4127ZM180.565 18.9442V22.334H179.525V18.0742H180.509L180.565 18.9442ZM181.86 18.0466L181.844 19.0151C181.786 19.0046 181.721 18.9967 181.647 18.9915C181.576 18.9862 181.509 18.9836 181.446 18.9836C181.286 18.9836 181.146 19.0059 181.025 19.0505C180.905 19.0925 180.803 19.1542 180.722 19.2356C180.643 19.3169 180.583 19.4167 180.541 19.5348C180.499 19.6503 180.475 19.7815 180.47 19.9285L180.246 19.9009C180.246 19.6306 180.273 19.3799 180.328 19.149C180.384 18.918 180.464 18.7159 180.569 18.5427C180.674 18.3694 180.805 18.2356 180.962 18.1411C181.122 18.044 181.306 17.9954 181.513 17.9954C181.571 17.9954 181.633 18.0007 181.698 18.0112C181.767 18.019 181.821 18.0309 181.86 18.0466Z" fill="#F6F1F2"/>
<path d="M215.177 20.8458C215.177 20.7356 215.16 20.6371 215.126 20.5505C215.094 20.4613 215.035 20.3812 214.948 20.3104C214.864 20.2369 214.745 20.166 214.59 20.0978C214.438 20.0269 214.241 19.9534 214 19.8773C213.732 19.7933 213.483 19.6988 213.252 19.5938C213.021 19.4889 212.817 19.3668 212.641 19.2277C212.468 19.0886 212.333 18.9285 212.236 18.7474C212.139 18.5637 212.09 18.3511 212.09 18.1096C212.09 17.8734 212.14 17.6582 212.24 17.4639C212.342 17.2697 212.486 17.103 212.673 16.9639C212.859 16.8222 213.078 16.7133 213.33 16.6372C213.585 16.561 213.866 16.523 214.173 16.523C214.598 16.523 214.965 16.6004 215.275 16.7553C215.587 16.9101 215.829 17.1201 216 17.3852C216.17 17.6503 216.255 17.9482 216.255 18.2789H215.177C215.177 18.1004 215.139 17.9429 215.063 17.8064C214.989 17.67 214.876 17.5624 214.724 17.4836C214.574 17.4049 214.385 17.3655 214.157 17.3655C213.937 17.3655 213.753 17.3983 213.606 17.4639C213.462 17.5295 213.353 17.6188 213.279 17.7316C213.208 17.8445 213.173 17.9705 213.173 18.1096C213.173 18.2146 213.198 18.3091 213.248 18.3931C213.297 18.4744 213.372 18.5519 213.472 18.6253C213.572 18.6962 213.695 18.7631 213.842 18.8261C213.992 18.8865 214.165 18.9469 214.362 19.0072C214.677 19.1017 214.952 19.2067 215.189 19.3222C215.427 19.4377 215.626 19.5689 215.783 19.7159C215.943 19.8629 216.063 20.0282 216.141 20.2119C216.223 20.3957 216.263 20.6043 216.263 20.8379C216.263 21.0846 216.215 21.3051 216.118 21.4993C216.021 21.6936 215.881 21.8589 215.7 21.9954C215.519 22.1319 215.301 22.2356 215.047 22.3064C214.795 22.3773 214.513 22.4127 214.2 22.4127C213.922 22.4127 213.647 22.376 213.374 22.3025C213.103 22.2264 212.858 22.1135 212.637 21.9639C212.417 21.8117 212.241 21.6201 212.11 21.3891C211.979 21.1555 211.913 20.8825 211.913 20.5702H213C213 20.7513 213.028 20.9062 213.086 21.0348C213.147 21.1608 213.231 21.2644 213.338 21.3458C213.448 21.4245 213.577 21.4823 213.724 21.519C213.871 21.5558 214.03 21.5741 214.2 21.5741C214.421 21.5741 214.602 21.544 214.744 21.4836C214.888 21.4206 214.996 21.334 215.067 21.2238C215.14 21.1135 215.177 20.9875 215.177 20.8458ZM219.259 18.0742V18.8222H216.818V18.0742H219.259ZM217.472 17.0269H218.515V21.1056C218.515 21.2316 218.532 21.3287 218.566 21.397C218.6 21.4652 218.651 21.5112 218.72 21.5348C218.788 21.5584 218.869 21.5702 218.964 21.5702C219.032 21.5702 219.095 21.5663 219.153 21.5584C219.21 21.5505 219.259 21.5426 219.298 21.5348L219.302 22.3143C219.216 22.3432 219.117 22.3668 219.007 22.3852C218.899 22.4035 218.777 22.4127 218.641 22.4127C218.407 22.4127 218.203 22.3734 218.027 22.2946C217.851 22.2133 217.714 22.0833 217.617 21.9049C217.52 21.7238 217.472 21.4849 217.472 21.1883V17.0269ZM222.522 21.4285V19.4639C222.522 19.3196 222.497 19.1949 222.447 19.0899C222.398 18.9849 222.321 18.9036 222.219 18.8458C222.117 18.7881 221.987 18.7592 221.829 18.7592C221.69 18.7592 221.568 18.7828 221.463 18.8301C221.361 18.8773 221.282 18.9442 221.227 19.0309C221.172 19.1148 221.144 19.212 221.144 19.3222H220.101C220.101 19.1463 220.143 18.9797 220.227 18.8222C220.311 18.6621 220.43 18.5204 220.585 18.397C220.743 18.271 220.93 18.1726 221.148 18.1017C221.369 18.0309 221.615 17.9954 221.888 17.9954C222.211 17.9954 222.499 18.0505 222.751 18.1608C223.005 18.2684 223.205 18.4311 223.349 18.649C223.496 18.8668 223.57 19.1411 223.57 19.4718V21.3301C223.57 21.5426 223.583 21.7251 223.609 21.8773C223.638 22.0269 223.68 22.1568 223.735 22.2671V22.334H222.676C222.626 22.2264 222.588 22.0899 222.562 21.9245C222.535 21.7566 222.522 21.5912 222.522 21.4285ZM222.668 19.7395L222.676 20.3576H222.018C221.856 20.3576 221.713 20.3747 221.589 20.4088C221.466 20.4403 221.365 20.4875 221.286 20.5505C221.207 20.6109 221.148 20.6844 221.109 20.771C221.07 20.855 221.05 20.9508 221.05 21.0584C221.05 21.1634 221.073 21.2579 221.121 21.3419C221.171 21.4259 221.241 21.4928 221.333 21.5426C221.428 21.5899 221.538 21.6135 221.664 21.6135C221.848 21.6135 222.008 21.5768 222.144 21.5033C222.281 21.4272 222.387 21.3353 222.463 21.2277C222.539 21.1201 222.58 21.0177 222.585 20.9206L222.884 21.3694C222.848 21.477 222.793 21.5912 222.719 21.7119C222.646 21.8327 222.551 21.9455 222.436 22.0505C222.32 22.1555 222.181 22.2421 222.018 22.3104C221.856 22.3786 221.667 22.4127 221.451 22.4127C221.176 22.4127 220.929 22.3576 220.711 22.2474C220.493 22.1371 220.322 21.9862 220.196 21.7946C220.07 21.603 220.007 21.3852 220.007 21.1411C220.007 20.9154 220.049 20.7159 220.133 20.5427C220.217 20.3694 220.341 20.2238 220.507 20.1056C220.672 19.9849 220.877 19.8944 221.121 19.834C221.367 19.771 221.65 19.7395 221.967 19.7395H222.668ZM225.75 18.9836V22.334H224.711V18.0742H225.687L225.75 18.9836ZM225.585 20.0505H225.278C225.28 19.7408 225.322 19.46 225.404 19.208C225.485 18.956 225.599 18.7395 225.746 18.5584C225.896 18.3773 226.073 18.2382 226.278 18.1411C226.482 18.044 226.711 17.9954 226.963 17.9954C227.167 17.9954 227.353 18.0243 227.518 18.082C227.683 18.1398 227.825 18.2316 227.943 18.3576C228.064 18.4836 228.156 18.649 228.219 18.8537C228.284 19.0558 228.317 19.3051 228.317 19.6017V22.334H227.27V19.5938C227.27 19.3996 227.241 19.2461 227.183 19.1332C227.128 19.0204 227.047 18.9403 226.939 18.8931C226.834 18.8458 226.704 18.8222 226.549 18.8222C226.389 18.8222 226.249 18.855 226.128 18.9206C226.01 18.9836 225.91 19.0715 225.829 19.1844C225.75 19.2973 225.69 19.4272 225.648 19.5742C225.606 19.7211 225.585 19.8799 225.585 20.0505ZM232.013 21.4285V16.2868H233.061V22.334H232.116L232.013 21.4285ZM229.277 20.2553V20.1726C229.277 19.8471 229.314 19.5518 229.388 19.2868C229.464 19.019 229.574 18.7894 229.718 18.5978C229.863 18.4062 230.037 18.2579 230.242 18.1529C230.449 18.0479 230.684 17.9954 230.947 17.9954C231.201 17.9954 231.423 18.0466 231.612 18.149C231.804 18.2513 231.966 18.397 232.1 18.586C232.237 18.7749 232.346 18.9994 232.427 19.2592C232.508 19.5164 232.567 19.7999 232.604 20.1096V20.334C232.567 20.6358 232.508 20.9127 232.427 21.1647C232.346 21.4167 232.237 21.6371 232.1 21.8261C231.966 22.0125 231.804 22.1568 231.612 22.2592C231.42 22.3615 231.196 22.4127 230.939 22.4127C230.679 22.4127 230.445 22.3589 230.238 22.2513C230.033 22.1437 229.859 21.9928 229.714 21.7986C229.573 21.6043 229.464 21.376 229.388 21.1135C229.314 20.8511 229.277 20.565 229.277 20.2553ZM230.321 20.1726V20.2553C230.321 20.439 230.336 20.6109 230.368 20.771C230.399 20.9311 230.451 21.0728 230.521 21.1962C230.592 21.3169 230.683 21.4114 230.793 21.4797C230.906 21.5479 231.042 21.582 231.202 21.582C231.407 21.582 231.575 21.5374 231.706 21.4482C231.84 21.3563 231.944 21.2316 232.017 21.0741C232.091 20.914 232.138 20.7343 232.159 20.5348V19.9167C232.149 19.7592 232.121 19.6135 232.076 19.4797C232.034 19.3458 231.974 19.2303 231.895 19.1332C231.819 19.0361 231.725 18.96 231.612 18.9049C231.499 18.8497 231.365 18.8222 231.21 18.8222C231.05 18.8222 230.914 18.8576 230.801 18.9285C230.688 18.9967 230.596 19.0925 230.525 19.2159C230.454 19.3392 230.402 19.4823 230.368 19.645C230.336 19.8077 230.321 19.9836 230.321 20.1726ZM236.572 21.4285V19.4639C236.572 19.3196 236.547 19.1949 236.497 19.0899C236.447 18.9849 236.371 18.9036 236.269 18.8458C236.167 18.7881 236.037 18.7592 235.879 18.7592C235.74 18.7592 235.618 18.7828 235.513 18.8301C235.411 18.8773 235.332 18.9442 235.277 19.0309C235.222 19.1148 235.194 19.212 235.194 19.3222H234.151C234.151 19.1463 234.193 18.9797 234.277 18.8222C234.361 18.6621 234.48 18.5204 234.635 18.397C234.793 18.271 234.98 18.1726 235.198 18.1017C235.419 18.0309 235.665 17.9954 235.938 17.9954C236.261 17.9954 236.548 18.0505 236.8 18.1608C237.055 18.2684 237.254 18.4311 237.399 18.649C237.546 18.8668 237.619 19.1411 237.619 19.4718V21.3301C237.619 21.5426 237.632 21.7251 237.659 21.8773C237.688 22.0269 237.73 22.1568 237.785 22.2671V22.334H236.726C236.676 22.2264 236.638 22.0899 236.611 21.9245C236.585 21.7566 236.572 21.5912 236.572 21.4285ZM236.718 19.7395L236.726 20.3576H236.068C235.905 20.3576 235.762 20.3747 235.639 20.4088C235.516 20.4403 235.415 20.4875 235.336 20.5505C235.257 20.6109 235.198 20.6844 235.159 20.771C235.119 20.855 235.1 20.9508 235.1 21.0584C235.1 21.1634 235.123 21.2579 235.171 21.3419C235.22 21.4259 235.291 21.4928 235.383 21.5426C235.478 21.5899 235.588 21.6135 235.714 21.6135C235.898 21.6135 236.058 21.5768 236.194 21.5033C236.331 21.4272 236.437 21.3353 236.513 21.2277C236.589 21.1201 236.63 21.0177 236.635 20.9206L236.934 21.3694C236.898 21.477 236.842 21.5912 236.769 21.7119C236.695 21.8327 236.601 21.9455 236.485 22.0505C236.37 22.1555 236.231 22.2421 236.068 22.3104C235.905 22.3786 235.716 22.4127 235.501 22.4127C235.226 22.4127 234.979 22.3576 234.761 22.2474C234.543 22.1371 234.371 21.9862 234.245 21.7946C234.119 21.603 234.056 21.3852 234.056 21.1411C234.056 20.9154 234.098 20.7159 234.182 20.5427C234.266 20.3694 234.391 20.2238 234.556 20.1056C234.722 19.9849 234.926 19.8944 235.171 19.834C235.417 19.771 235.699 19.7395 236.017 19.7395H236.718ZM239.82 18.9442V22.334H238.78V18.0742H239.765L239.82 18.9442ZM241.115 18.0466L241.099 19.0151C241.041 19.0046 240.976 18.9967 240.902 18.9915C240.831 18.9862 240.765 18.9836 240.702 18.9836C240.541 18.9836 240.401 19.0059 240.28 19.0505C240.16 19.0925 240.059 19.1542 239.977 19.2356C239.898 19.3169 239.838 19.4167 239.796 19.5348C239.754 19.6503 239.73 19.7815 239.725 19.9285L239.501 19.9009C239.501 19.6306 239.528 19.3799 239.583 19.149C239.639 18.918 239.719 18.7159 239.824 18.5427C239.929 18.3694 240.06 18.2356 240.217 18.1411C240.377 18.044 240.561 17.9954 240.768 17.9954C240.826 17.9954 240.888 18.0007 240.954 18.0112C241.022 18.019 241.076 18.0309 241.115 18.0466ZM244.386 21.4285V16.2868H245.433V22.334H244.488L244.386 21.4285ZM241.65 20.2553V20.1726C241.65 19.8471 241.687 19.5518 241.76 19.2868C241.836 19.019 241.947 18.7894 242.091 18.5978C242.235 18.4062 242.41 18.2579 242.614 18.1529C242.822 18.0479 243.057 17.9954 243.319 17.9954C243.574 17.9954 243.796 18.0466 243.985 18.149C244.176 18.2513 244.339 18.397 244.473 18.586C244.609 18.7749 244.718 18.9994 244.8 19.2592C244.881 19.5164 244.94 19.7999 244.977 20.1096V20.334C244.94 20.6358 244.881 20.9127 244.8 21.1647C244.718 21.4167 244.609 21.6371 244.473 21.8261C244.339 22.0125 244.176 22.1568 243.985 22.2592C243.793 22.3615 243.569 22.4127 243.311 22.4127C243.051 22.4127 242.818 22.3589 242.611 22.2513C242.406 22.1437 242.231 21.9928 242.087 21.7986C241.945 21.6043 241.836 21.376 241.76 21.1135C241.687 20.8511 241.65 20.565 241.65 20.2553ZM242.693 20.1726V20.2553C242.693 20.439 242.709 20.6109 242.74 20.771C242.772 20.9311 242.823 21.0728 242.894 21.1962C242.965 21.3169 243.055 21.4114 243.166 21.4797C243.279 21.5479 243.415 21.582 243.575 21.582C243.78 21.582 243.948 21.5374 244.079 21.4482C244.213 21.3563 244.317 21.2316 244.39 21.0741C244.464 20.914 244.511 20.7343 244.532 20.5348V19.9167C244.521 19.7592 244.494 19.6135 244.449 19.4797C244.407 19.3458 244.347 19.2303 244.268 19.1332C244.192 19.0361 244.097 18.96 243.985 18.9049C243.872 18.8497 243.738 18.8222 243.583 18.8222C243.423 18.8222 243.286 18.8576 243.174 18.9285C243.061 18.9967 242.969 19.0925 242.898 19.2159C242.827 19.3392 242.775 19.4823 242.74 19.645C242.709 19.8077 242.693 19.9836 242.693 20.1726ZM252.098 16.6017H253.18V20.4088C253.18 20.8471 253.086 21.2159 252.897 21.5151C252.708 21.8117 252.451 22.0361 252.125 22.1883C251.8 22.3379 251.43 22.4127 251.015 22.4127C250.595 22.4127 250.221 22.3379 249.893 22.1883C249.565 22.0361 249.308 21.8117 249.121 21.5151C248.935 21.2159 248.842 20.8471 248.842 20.4088V16.6017H249.925V20.4088C249.925 20.6765 249.969 20.8957 250.058 21.0663C250.148 21.2343 250.274 21.3589 250.436 21.4403C250.599 21.5217 250.792 21.5623 251.015 21.5623C251.241 21.5623 251.434 21.5217 251.594 21.4403C251.757 21.3589 251.881 21.2343 251.968 21.0663C252.055 20.8957 252.098 20.6765 252.098 20.4088V16.6017ZM256.696 21.1686C256.696 21.0794 256.672 20.9993 256.625 20.9285C256.578 20.8576 256.488 20.7933 256.357 20.7356C256.229 20.6752 256.04 20.6188 255.79 20.5663C255.57 20.519 255.366 20.46 255.18 20.3891C254.994 20.3182 254.834 20.2329 254.7 20.1332C254.566 20.0308 254.461 19.9114 254.385 19.7749C254.311 19.6358 254.275 19.4757 254.275 19.2946C254.275 19.1188 254.313 18.9534 254.389 18.7986C254.465 18.6411 254.575 18.5033 254.719 18.3852C254.864 18.2644 255.04 18.17 255.247 18.1017C255.454 18.0309 255.688 17.9954 255.948 17.9954C256.31 17.9954 256.621 18.0545 256.881 18.1726C257.143 18.2907 257.344 18.4534 257.483 18.6608C257.622 18.8655 257.692 19.0965 257.692 19.3537H256.652C256.652 19.2408 256.626 19.1385 256.574 19.0466C256.524 18.9547 256.446 18.8812 256.341 18.8261C256.236 18.7684 256.104 18.7395 255.944 18.7395C255.799 18.7395 255.677 18.7631 255.578 18.8104C255.481 18.8576 255.407 18.9193 255.357 18.9954C255.307 19.0715 255.282 19.1555 255.282 19.2474C255.282 19.3156 255.296 19.3773 255.322 19.4324C255.351 19.4849 255.397 19.5335 255.46 19.5781C255.523 19.6227 255.608 19.6634 255.715 19.7001C255.826 19.7369 255.961 19.7723 256.121 19.8064C256.439 19.8694 256.715 19.9534 256.952 20.0584C257.191 20.1608 257.377 20.2972 257.511 20.4679C257.645 20.6385 257.712 20.8563 257.712 21.1214C257.712 21.3104 257.671 21.4836 257.589 21.6411C257.508 21.7959 257.39 21.9311 257.235 22.0466C257.08 22.1621 256.895 22.2526 256.68 22.3182C256.465 22.3812 256.222 22.4127 255.952 22.4127C255.561 22.4127 255.23 22.3432 254.96 22.2041C254.689 22.0623 254.485 21.8839 254.345 21.6686C254.206 21.4508 254.137 21.2251 254.137 20.9915H255.133C255.141 21.1568 255.185 21.2894 255.267 21.3891C255.348 21.4888 255.45 21.561 255.574 21.6056C255.7 21.6476 255.832 21.6686 255.971 21.6686C256.129 21.6686 256.261 21.6476 256.369 21.6056C256.477 21.561 256.558 21.502 256.613 21.4285C256.668 21.3524 256.696 21.2657 256.696 21.1686ZM260.64 22.4127C260.317 22.4127 260.027 22.3602 259.77 22.2552C259.513 22.1503 259.294 22.0046 259.113 21.8182C258.934 21.6293 258.796 21.4101 258.699 21.1608C258.605 20.9088 258.558 20.6385 258.558 20.3497V20.1923C258.558 19.8642 258.605 19.5663 258.699 19.2986C258.794 19.0282 258.928 18.7959 259.101 18.6017C259.274 18.4075 259.481 18.2579 259.723 18.1529C259.964 18.0479 260.231 17.9954 260.522 17.9954C260.824 17.9954 261.09 18.0466 261.321 18.149C261.552 18.2487 261.745 18.3904 261.9 18.5742C262.055 18.7579 262.172 18.9784 262.25 19.2356C262.329 19.4902 262.369 19.7723 262.369 20.082V20.519H259.03V19.8025H261.345V19.7238C261.34 19.5584 261.308 19.4075 261.25 19.271C261.193 19.1319 261.103 19.0217 260.983 18.9403C260.862 18.8563 260.706 18.8143 260.514 18.8143C260.359 18.8143 260.224 18.8484 260.109 18.9167C259.996 18.9823 259.901 19.0768 259.825 19.2001C259.752 19.3209 259.697 19.4652 259.66 19.6332C259.623 19.8012 259.605 19.9875 259.605 20.1923V20.3497C259.605 20.5282 259.628 20.6936 259.676 20.8458C259.726 20.998 259.798 21.1306 259.892 21.2434C259.989 21.3537 260.105 21.4403 260.239 21.5033C260.375 21.5636 260.53 21.5938 260.703 21.5938C260.921 21.5938 261.118 21.5518 261.294 21.4678C261.472 21.3812 261.627 21.2539 261.758 21.086L262.282 21.6293C262.193 21.7605 262.072 21.8865 261.92 22.0072C261.77 22.1279 261.589 22.2264 261.376 22.3025C261.164 22.376 260.918 22.4127 260.64 22.4127ZM264.329 18.9442V22.334H263.289V18.0742H264.274L264.329 18.9442ZM265.624 18.0466L265.608 19.0151C265.551 19.0046 265.485 18.9967 265.411 18.9915C265.341 18.9862 265.274 18.9836 265.211 18.9836C265.051 18.9836 264.91 19.0059 264.789 19.0505C264.669 19.0925 264.568 19.1542 264.486 19.2356C264.407 19.3169 264.347 19.4167 264.305 19.5348C264.263 19.6503 264.239 19.7815 264.234 19.9285L264.01 19.9009C264.01 19.6306 264.037 19.3799 264.093 19.149C264.148 18.918 264.228 18.7159 264.333 18.5427C264.438 18.3694 264.569 18.2356 264.726 18.1411C264.886 18.044 265.07 17.9954 265.278 17.9954C265.335 17.9954 265.397 18.0007 265.463 18.0112C265.531 18.019 265.585 18.0309 265.624 18.0466Z" fill="#F6F1F2"/>
<path d="M298.883 20.2434H297.407V19.3931H298.883C299.125 19.3931 299.32 19.3537 299.47 19.2749C299.622 19.1936 299.734 19.0833 299.804 18.9442C299.875 18.8025 299.911 18.6411 299.911 18.46C299.911 18.2841 299.875 18.1201 299.804 17.9679C299.734 17.8156 299.622 17.6923 299.47 17.5978C299.32 17.5033 299.125 17.4561 298.883 17.4561H297.761V22.334H296.678V16.6017H298.883C299.329 16.6017 299.71 16.6818 300.025 16.8419C300.342 16.9994 300.584 17.2185 300.749 17.4994C300.917 17.7776 301.001 18.0952 301.001 18.4521C301.001 18.8222 300.917 19.1411 300.749 19.4088C300.584 19.6765 300.342 19.8826 300.025 20.0269C299.71 20.1713 299.329 20.2434 298.883 20.2434ZM303.036 18.9442V22.334H301.997V18.0742H302.981L303.036 18.9442ZM304.331 18.0466L304.316 19.0151C304.258 19.0046 304.192 18.9967 304.119 18.9915C304.048 18.9862 303.981 18.9836 303.918 18.9836C303.758 18.9836 303.618 19.0059 303.497 19.0505C303.376 19.0925 303.275 19.1542 303.194 19.2356C303.115 19.3169 303.055 19.4167 303.013 19.5348C302.971 19.6503 302.947 19.7815 302.942 19.9285L302.717 19.9009C302.717 19.6306 302.745 19.3799 302.8 19.149C302.855 18.918 302.935 18.7159 303.04 18.5427C303.145 18.3694 303.276 18.2356 303.434 18.1411C303.594 18.044 303.778 17.9954 303.985 17.9954C304.043 17.9954 304.104 18.0007 304.17 18.0112C304.238 18.019 304.292 18.0309 304.331 18.0466ZM306.961 22.4127C306.638 22.4127 306.348 22.3602 306.091 22.2552C305.834 22.1503 305.614 22.0046 305.433 21.8182C305.255 21.6293 305.117 21.4101 305.02 21.1608C304.926 20.9088 304.878 20.6385 304.878 20.3497V20.1923C304.878 19.8642 304.926 19.5663 305.02 19.2986C305.115 19.0282 305.248 18.7959 305.422 18.6017C305.595 18.4075 305.802 18.2579 306.044 18.1529C306.285 18.0479 306.552 17.9954 306.843 17.9954C307.145 17.9954 307.411 18.0466 307.642 18.149C307.873 18.2487 308.066 18.3904 308.221 18.5742C308.376 18.7579 308.492 18.9784 308.571 19.2356C308.65 19.4902 308.689 19.7723 308.689 20.082V20.519H305.351V19.8025H307.666V19.7238C307.66 19.5584 307.629 19.4075 307.571 19.271C307.513 19.1319 307.424 19.0217 307.303 18.9403C307.183 18.8563 307.027 18.8143 306.835 18.8143C306.68 18.8143 306.545 18.8484 306.429 18.9167C306.317 18.9823 306.222 19.0768 306.146 19.2001C306.073 19.3209 306.017 19.4652 305.981 19.6332C305.944 19.8012 305.926 19.9875 305.926 20.1923V20.3497C305.926 20.5282 305.949 20.6936 305.996 20.8458C306.046 20.998 306.118 21.1306 306.213 21.2434C306.31 21.3537 306.426 21.4403 306.559 21.5033C306.696 21.5636 306.851 21.5938 307.024 21.5938C307.242 21.5938 307.439 21.5518 307.614 21.4678C307.793 21.3812 307.948 21.2539 308.079 21.086L308.603 21.6293C308.513 21.7605 308.393 21.8865 308.24 22.0072C308.091 22.1279 307.91 22.2264 307.697 22.3025C307.485 22.376 307.239 22.4127 306.961 22.4127ZM310.646 18.9482V22.334H309.606V18.0742H310.586L310.646 18.9482ZM310.492 20.0505H310.173C310.173 19.7539 310.209 19.481 310.279 19.2316C310.353 18.9823 310.46 18.7658 310.602 18.582C310.744 18.3957 310.918 18.2513 311.126 18.149C311.336 18.0466 311.579 17.9954 311.854 17.9954C312.046 17.9954 312.222 18.0243 312.382 18.082C312.542 18.1372 312.68 18.2251 312.795 18.3458C312.913 18.4639 313.004 18.6188 313.067 18.8104C313.13 18.9994 313.161 19.2264 313.161 19.4915V22.334H312.122V19.5978C312.122 19.3983 312.093 19.2421 312.035 19.1293C311.98 19.0164 311.9 18.9377 311.795 18.8931C311.69 18.8458 311.564 18.8222 311.417 18.8222C311.254 18.8222 311.114 18.855 310.996 18.9206C310.88 18.9836 310.785 19.0715 310.709 19.1844C310.635 19.2973 310.58 19.4272 310.543 19.5742C310.509 19.7211 310.492 19.8799 310.492 20.0505ZM313.083 19.8576L312.653 19.9364C312.656 19.6686 312.693 19.418 312.764 19.1844C312.834 18.9482 312.938 18.7421 313.075 18.5663C313.214 18.3878 313.386 18.2487 313.59 18.149C313.798 18.0466 314.037 17.9954 314.307 17.9954C314.517 17.9954 314.706 18.0256 314.874 18.086C315.044 18.1437 315.19 18.2369 315.311 18.3655C315.432 18.4915 315.523 18.6555 315.586 18.8576C315.652 19.0597 315.685 19.3064 315.685 19.5978V22.334H314.638V19.5938C314.638 19.3865 314.609 19.2277 314.551 19.1175C314.496 19.0072 314.416 18.9311 314.311 18.8891C314.206 18.8445 314.083 18.8222 313.941 18.8222C313.796 18.8222 313.67 18.8497 313.563 18.9049C313.458 18.9574 313.369 19.0309 313.295 19.1253C313.224 19.2198 313.17 19.3301 313.134 19.456C313.1 19.5794 313.083 19.7133 313.083 19.8576ZM317.944 18.0742V22.334H316.901V18.0742H317.944ZM316.83 16.96C316.83 16.8051 316.883 16.6765 316.988 16.5742C317.095 16.4718 317.24 16.4206 317.421 16.4206C317.602 16.4206 317.745 16.4718 317.85 16.5742C317.957 16.6765 318.011 16.8051 318.011 16.96C318.011 17.1122 317.957 17.2395 317.85 17.3419C317.745 17.4442 317.602 17.4954 317.421 17.4954C317.24 17.4954 317.095 17.4442 316.988 17.3419C316.883 17.2395 316.83 17.1122 316.83 16.96ZM321.696 21.3222V18.0742H322.743V22.334H321.759L321.696 21.3222ZM321.83 20.4403L322.152 20.4324C322.152 20.7185 322.121 20.9823 322.058 21.2238C321.995 21.4652 321.897 21.6752 321.763 21.8537C321.631 22.0295 321.465 22.1673 321.263 22.2671C321.061 22.3642 320.822 22.4127 320.546 22.4127C320.336 22.4127 320.145 22.3839 319.971 22.3261C319.798 22.2657 319.649 22.1726 319.523 22.0466C319.399 21.918 319.303 21.7539 319.235 21.5545C319.167 21.3524 319.133 21.1096 319.133 20.8261V18.0742H320.172V20.834C320.172 20.9757 320.188 21.0938 320.219 21.1883C320.254 21.2828 320.299 21.3602 320.357 21.4206C320.418 21.4783 320.487 21.5203 320.566 21.5466C320.647 21.5702 320.734 21.582 320.826 21.582C321.078 21.582 321.276 21.5322 321.42 21.4324C321.567 21.3301 321.672 21.1936 321.735 21.023C321.798 20.8497 321.83 20.6555 321.83 20.4403ZM324.924 18.9482V22.334H323.884V18.0742H324.865L324.924 18.9482ZM324.77 20.0505H324.451C324.451 19.7539 324.487 19.481 324.558 19.2316C324.631 18.9823 324.739 18.7658 324.88 18.582C325.022 18.3957 325.197 18.2513 325.404 18.149C325.614 18.0466 325.857 17.9954 326.132 17.9954C326.324 17.9954 326.5 18.0243 326.66 18.082C326.82 18.1372 326.958 18.2251 327.073 18.3458C327.191 18.4639 327.282 18.6188 327.345 18.8104C327.408 18.9994 327.439 19.2264 327.439 19.4915V22.334H326.4V19.5978C326.4 19.3983 326.371 19.2421 326.313 19.1293C326.258 19.0164 326.178 18.9377 326.073 18.8931C325.968 18.8458 325.842 18.8222 325.695 18.8222C325.533 18.8222 325.392 18.855 325.274 18.9206C325.159 18.9836 325.063 19.0715 324.987 19.1844C324.913 19.2973 324.858 19.4272 324.821 19.5742C324.787 19.7211 324.77 19.8799 324.77 20.0505ZM327.361 19.8576L326.932 19.9364C326.934 19.6686 326.971 19.418 327.042 19.1844C327.113 18.9482 327.216 18.7421 327.353 18.5663C327.492 18.3878 327.664 18.2487 327.869 18.149C328.076 18.0466 328.315 17.9954 328.585 17.9954C328.795 17.9954 328.984 18.0256 329.152 18.086C329.323 18.1437 329.468 18.2369 329.589 18.3655C329.71 18.4915 329.802 18.6555 329.865 18.8576C329.93 19.0597 329.963 19.3064 329.963 19.5978V22.334H328.916V19.5938C328.916 19.3865 328.887 19.2277 328.829 19.1175C328.774 19.0072 328.694 18.9311 328.589 18.8891C328.484 18.8445 328.361 18.8222 328.219 18.8222C328.075 18.8222 327.949 18.8497 327.841 18.9049C327.736 18.9574 327.647 19.0309 327.573 19.1253C327.502 19.2198 327.449 19.3301 327.412 19.456C327.378 19.5794 327.361 19.7133 327.361 19.8576ZM336.62 16.6017H337.702V20.4088C337.702 20.8471 337.608 21.2159 337.419 21.5151C337.23 21.8117 336.973 22.0361 336.647 22.1883C336.322 22.3379 335.952 22.4127 335.537 22.4127C335.117 22.4127 334.743 22.3379 334.415 22.1883C334.087 22.0361 333.83 21.8117 333.643 21.5151C333.457 21.2159 333.364 20.8471 333.364 20.4088V16.6017H334.446V20.4088C334.446 20.6765 334.491 20.8957 334.58 21.0663C334.669 21.2343 334.795 21.3589 334.958 21.4403C335.121 21.5217 335.314 21.5623 335.537 21.5623C335.763 21.5623 335.956 21.5217 336.116 21.4403C336.278 21.3589 336.403 21.2343 336.49 21.0663C336.576 20.8957 336.62 20.6765 336.62 20.4088V16.6017ZM341.218 21.1686C341.218 21.0794 341.194 20.9993 341.147 20.9285C341.099 20.8576 341.01 20.7933 340.879 20.7356C340.75 20.6752 340.561 20.6188 340.312 20.5663C340.092 20.519 339.888 20.46 339.702 20.3891C339.515 20.3182 339.355 20.2329 339.222 20.1332C339.088 20.0308 338.983 19.9114 338.907 19.7749C338.833 19.6358 338.796 19.4757 338.796 19.2946C338.796 19.1188 338.834 18.9534 338.91 18.7986C338.987 18.6411 339.097 18.5033 339.241 18.3852C339.386 18.2644 339.561 18.17 339.769 18.1017C339.976 18.0309 340.21 17.9954 340.47 17.9954C340.832 17.9954 341.143 18.0545 341.403 18.1726C341.665 18.2907 341.866 18.4534 342.005 18.6608C342.144 18.8655 342.214 19.0965 342.214 19.3537H341.174C341.174 19.2408 341.148 19.1385 341.096 19.0466C341.046 18.9547 340.968 18.8812 340.863 18.8261C340.758 18.7684 340.626 18.7395 340.466 18.7395C340.321 18.7395 340.199 18.7631 340.099 18.8104C340.002 18.8576 339.929 18.9193 339.879 18.9954C339.829 19.0715 339.804 19.1555 339.804 19.2474C339.804 19.3156 339.817 19.3773 339.844 19.4324C339.872 19.4849 339.918 19.5335 339.981 19.5781C340.044 19.6227 340.13 19.6634 340.237 19.7001C340.347 19.7369 340.483 19.7723 340.643 19.8064C340.96 19.8694 341.237 19.9534 341.473 20.0584C341.712 20.1608 341.899 20.2972 342.033 20.4679C342.166 20.6385 342.233 20.8563 342.233 21.1214C342.233 21.3104 342.193 21.4836 342.111 21.6411C342.03 21.7959 341.912 21.9311 341.757 22.0466C341.602 22.1621 341.417 22.2526 341.202 22.3182C340.987 22.3812 340.744 22.4127 340.473 22.4127C340.082 22.4127 339.752 22.3432 339.481 22.2041C339.211 22.0623 339.006 21.8839 338.867 21.6686C338.728 21.4508 338.659 21.2251 338.659 20.9915H339.655C339.662 21.1568 339.707 21.2894 339.788 21.3891C339.87 21.4888 339.972 21.561 340.096 21.6056C340.222 21.6476 340.354 21.6686 340.493 21.6686C340.651 21.6686 340.783 21.6476 340.891 21.6056C340.998 21.561 341.08 21.502 341.135 21.4285C341.19 21.3524 341.218 21.2657 341.218 21.1686ZM345.162 22.4127C344.839 22.4127 344.549 22.3602 344.292 22.2552C344.035 22.1503 343.816 22.0046 343.634 21.8182C343.456 21.6293 343.318 21.4101 343.221 21.1608C343.127 20.9088 343.079 20.6385 343.079 20.3497V20.1923C343.079 19.8642 343.127 19.5663 343.221 19.2986C343.316 19.0282 343.449 18.7959 343.623 18.6017C343.796 18.4075 344.003 18.2579 344.245 18.1529C344.486 18.0479 344.753 17.9954 345.044 17.9954C345.346 17.9954 345.612 18.0466 345.843 18.149C346.074 18.2487 346.267 18.3904 346.422 18.5742C346.577 18.7579 346.693 18.9784 346.772 19.2356C346.851 19.4902 346.89 19.7723 346.89 20.082V20.519H343.552V19.8025H345.867V19.7238C345.861 19.5584 345.83 19.4075 345.772 19.271C345.714 19.1319 345.625 19.0217 345.505 18.9403C345.384 18.8563 345.228 18.8143 345.036 18.8143C344.881 18.8143 344.746 18.8484 344.63 18.9167C344.518 18.9823 344.423 19.0768 344.347 19.2001C344.274 19.3209 344.218 19.4652 344.182 19.6332C344.145 19.8012 344.127 19.9875 344.127 20.1923V20.3497C344.127 20.5282 344.15 20.6936 344.197 20.8458C344.247 20.998 344.319 21.1306 344.414 21.2434C344.511 21.3537 344.627 21.4403 344.76 21.5033C344.897 21.5636 345.052 21.5938 345.225 21.5938C345.443 21.5938 345.64 21.5518 345.816 21.4678C345.994 21.3812 346.149 21.2539 346.28 21.086L346.804 21.6293C346.714 21.7605 346.594 21.8865 346.442 22.0072C346.292 22.1279 346.111 22.2264 345.898 22.3025C345.686 22.376 345.44 22.4127 345.162 22.4127ZM348.851 18.9442V22.334H347.811V18.0742H348.795L348.851 18.9442ZM350.146 18.0466L350.13 19.0151C350.072 19.0046 350.007 18.9967 349.933 18.9915C349.862 18.9862 349.795 18.9836 349.732 18.9836C349.572 18.9836 349.432 19.0059 349.311 19.0505C349.19 19.0925 349.089 19.1542 349.008 19.2356C348.929 19.3169 348.869 19.4167 348.827 19.5348C348.785 19.6503 348.761 19.7815 348.756 19.9285L348.532 19.9009C348.532 19.6306 348.559 19.3799 348.614 19.149C348.669 18.918 348.749 18.7159 348.854 18.5427C348.959 18.3694 349.091 18.2356 349.248 18.1411C349.408 18.044 349.592 17.9954 349.799 17.9954C349.857 17.9954 349.919 18.0007 349.984 18.0112C350.053 18.019 350.106 18.0309 350.146 18.0466Z" fill="#F6F1F2"/>
<path d="M14.334 36.084L355.666 36.084" stroke="url(#paint0_linear_11044_3419)" stroke-width="0.447942" stroke-linecap="round"/>
<path d="M17.6411 61.9915C17.6411 61.8725 17.6224 61.7675 17.5851 61.6765C17.5501 61.5832 17.4871 61.4992 17.3961 61.4245C17.3074 61.3499 17.1838 61.2787 17.0251 61.2111C16.8688 61.1434 16.6705 61.0746 16.4302 61.0046C16.1782 60.9299 15.9508 60.8471 15.7478 60.7561C15.5448 60.6628 15.371 60.5567 15.2264 60.4377C15.0817 60.3187 14.9709 60.1822 14.8939 60.0282C14.8169 59.8742 14.7784 59.6981 14.7784 59.4998C14.7784 59.3015 14.8193 59.1183 14.9009 58.9504C14.9826 58.7824 15.0992 58.6366 15.2509 58.5129C15.4048 58.3869 15.588 58.2889 15.8003 58.219C16.0126 58.149 16.2494 58.114 16.5107 58.114C16.8933 58.114 17.2176 58.1875 17.4836 58.3344C17.7519 58.4791 17.956 58.6692 18.096 58.9049C18.236 59.1382 18.306 59.3878 18.306 59.6538H17.6341C17.6341 59.4625 17.5932 59.2933 17.5116 59.1463C17.4299 58.997 17.3063 58.8804 17.1406 58.7964C16.975 58.7101 16.765 58.6669 16.5107 58.6669C16.2704 58.6669 16.0721 58.7031 15.9158 58.7754C15.7595 58.8477 15.6428 58.9457 15.5658 59.0693C15.4912 59.193 15.4538 59.3341 15.4538 59.4928C15.4538 59.6001 15.476 59.6981 15.5203 59.7868C15.567 59.8731 15.6381 59.9536 15.7338 60.0282C15.8318 60.1029 15.9554 60.1717 16.1048 60.2347C16.2564 60.2977 16.4372 60.3583 16.6472 60.4167C16.9365 60.4983 17.1861 60.5893 17.3961 60.6896C17.6061 60.79 17.7787 60.9031 17.914 61.0291C18.0517 61.1527 18.1532 61.2939 18.2185 61.4525C18.2861 61.6088 18.32 61.7862 18.32 61.9845C18.32 62.1921 18.278 62.3799 18.194 62.5479C18.11 62.7159 17.9898 62.8594 17.8335 62.9783C17.6772 63.0973 17.4894 63.1895 17.2701 63.2548C17.0531 63.3178 16.8105 63.3493 16.5422 63.3493C16.3066 63.3493 16.0744 63.3166 15.8458 63.2513C15.6195 63.186 15.413 63.088 15.2264 62.9573C15.0421 62.8267 14.8939 62.6657 14.7819 62.4744C14.6723 62.2808 14.6174 62.0568 14.6174 61.8025H15.2894C15.2894 61.9775 15.3232 62.1279 15.3908 62.2539C15.4585 62.3776 15.5507 62.4802 15.6673 62.5619C15.7863 62.6435 15.9204 62.7042 16.0698 62.7439C16.2214 62.7812 16.3789 62.7999 16.5422 62.7999C16.7778 62.7999 16.9773 62.7672 17.1406 62.7019C17.3039 62.6365 17.4276 62.5432 17.5116 62.4219C17.5979 62.3006 17.6411 62.1571 17.6411 61.9915ZM20.0102 59.4928V63.2793H19.3593V59.4928H20.0102ZM19.3103 58.4884C19.3103 58.3834 19.3418 58.2948 19.4048 58.2225C19.4702 58.1501 19.5658 58.114 19.6918 58.114C19.8154 58.114 19.9099 58.1501 19.9753 58.2225C20.0429 58.2948 20.0767 58.3834 20.0767 58.4884C20.0767 58.5887 20.0429 58.6751 19.9753 58.7474C19.9099 58.8174 19.8154 58.8524 19.6918 58.8524C19.5658 58.8524 19.4702 58.8174 19.4048 58.7474C19.3418 58.6751 19.3103 58.5887 19.3103 58.4884ZM21.977 57.904V63.2793H21.3261V57.904H21.977ZM24.8116 63.3493C24.548 63.3493 24.3089 63.305 24.0942 63.2163C23.8819 63.1253 23.6988 62.9982 23.5448 62.8349C23.3931 62.6715 23.2765 62.4779 23.1948 62.2539C23.1132 62.03 23.0724 61.785 23.0724 61.519V61.372C23.0724 61.0641 23.1178 60.79 23.2088 60.5497C23.2998 60.307 23.4235 60.1017 23.5798 59.9337C23.7361 59.7658 23.9134 59.6386 24.1117 59.5523C24.31 59.466 24.5153 59.4228 24.7276 59.4228C24.9983 59.4228 25.2316 59.4695 25.4275 59.5628C25.6259 59.6561 25.788 59.7868 25.914 59.9547C26.04 60.1204 26.1333 60.3163 26.1939 60.5427C26.2546 60.7666 26.2849 61.0116 26.2849 61.2776V61.568H23.4573V61.0396H25.6375V60.9906C25.6282 60.8226 25.5932 60.6593 25.5325 60.5007C25.4742 60.342 25.3809 60.2114 25.2526 60.1087C25.1243 60.0061 24.9493 59.9547 24.7276 59.9547C24.5807 59.9547 24.4453 59.9862 24.3217 60.0492C24.198 60.1099 24.0919 60.2009 24.0032 60.3222C23.9146 60.4435 23.8458 60.5916 23.7968 60.7666C23.7478 60.9416 23.7233 61.1434 23.7233 61.372V61.519C23.7233 61.6987 23.7478 61.8678 23.7968 62.0265C23.8481 62.1828 23.9216 62.3204 24.0172 62.4394C24.1152 62.5584 24.233 62.6517 24.3707 62.7194C24.5107 62.787 24.6693 62.8209 24.8466 62.8209C25.0753 62.8209 25.2689 62.7742 25.4275 62.6809C25.5862 62.5876 25.725 62.4627 25.844 62.3064L26.2359 62.6179C26.1543 62.7415 26.0505 62.8594 25.9245 62.9713C25.7985 63.0833 25.6434 63.1743 25.459 63.2443C25.2771 63.3143 25.0613 63.3493 24.8116 63.3493ZM27.9122 60.3012V63.2793H27.2648V59.4928H27.8772L27.9122 60.3012ZM27.7582 61.2426L27.4888 61.2321C27.4911 60.9731 27.5296 60.734 27.6043 60.5147C27.6789 60.293 27.7839 60.1005 27.9192 59.9372C28.0545 59.7739 28.2155 59.6479 28.4022 59.5593C28.5911 59.4683 28.7999 59.4228 29.0286 59.4228C29.2152 59.4228 29.3832 59.4485 29.5325 59.4998C29.6818 59.5488 29.809 59.6281 29.914 59.7378C30.0213 59.8474 30.1029 59.9897 30.1589 60.1647C30.2149 60.3373 30.2429 60.5485 30.2429 60.7981V63.2793H29.592V60.7911C29.592 60.5928 29.5628 60.4342 29.5045 60.3152C29.4462 60.1939 29.361 60.1064 29.249 60.0527C29.1371 59.9967 28.9994 59.9687 28.8361 59.9687C28.6751 59.9687 28.5281 60.0026 28.3952 60.0702C28.2645 60.1379 28.1514 60.2312 28.0557 60.3502C27.9624 60.4692 27.8889 60.6056 27.8352 60.7596C27.7839 60.9113 27.7582 61.0722 27.7582 61.2426ZM33.0356 59.4928V59.9897H30.9883V59.4928H33.0356ZM31.6812 58.5724H32.3286V62.3414C32.3286 62.4697 32.3485 62.5666 32.3881 62.6319C32.4278 62.6972 32.4791 62.7404 32.5421 62.7614C32.6051 62.7824 32.6728 62.7929 32.7451 62.7929C32.7988 62.7929 32.8547 62.7882 32.9131 62.7789C32.9737 62.7672 33.0192 62.7579 33.0496 62.7509L33.0531 63.2793C33.0017 63.2956 32.9341 63.3108 32.8501 63.3248C32.7684 63.3411 32.6693 63.3493 32.5526 63.3493C32.394 63.3493 32.2482 63.3178 32.1152 63.2548C31.9822 63.1918 31.876 63.0868 31.7967 62.9398C31.7197 62.7905 31.6812 62.5899 31.6812 62.3379V58.5724ZM37.9979 61.2811H36.6366V60.7316H37.9979C38.2615 60.7316 38.475 60.6896 38.6383 60.6056C38.8016 60.5217 38.9206 60.405 38.9953 60.2557C39.0723 60.1064 39.1108 59.9361 39.1108 59.7448C39.1108 59.5698 39.0723 59.4053 38.9953 59.2513C38.9206 59.0973 38.8016 58.9737 38.6383 58.8804C38.475 58.7847 38.2615 58.7369 37.9979 58.7369H36.7941V63.2793H36.1187V58.184H37.9979C38.3829 58.184 38.7083 58.2504 38.9743 58.3834C39.2403 58.5164 39.4421 58.7007 39.5797 58.9364C39.7174 59.1697 39.7862 59.4368 39.7862 59.7378C39.7862 60.0644 39.7174 60.3432 39.5797 60.5741C39.4421 60.8051 39.2403 60.9813 38.9743 61.1026C38.7083 61.2216 38.3829 61.2811 37.9979 61.2811ZM42.9568 62.6319V60.6826C42.9568 60.5333 42.9264 60.4038 42.8658 60.2942C42.8075 60.1822 42.7188 60.0959 42.5998 60.0352C42.4808 59.9746 42.3339 59.9442 42.1589 59.9442C41.9956 59.9442 41.8521 59.9722 41.7284 60.0282C41.6071 60.0842 41.5115 60.1577 41.4415 60.2487C41.3738 60.3397 41.34 60.4377 41.34 60.5427H40.6926C40.6926 60.4073 40.7276 60.2732 40.7975 60.1402C40.8675 60.0072 40.9679 59.8871 41.0985 59.7798C41.2315 59.6701 41.3901 59.5838 41.5744 59.5208C41.7611 59.4555 41.9687 59.4228 42.1974 59.4228C42.4727 59.4228 42.7153 59.4695 42.9253 59.5628C43.1376 59.6561 43.3032 59.7972 43.4222 59.9862C43.5435 60.1729 43.6042 60.4073 43.6042 60.6896V62.4534C43.6042 62.5794 43.6147 62.7135 43.6357 62.8559C43.659 62.9982 43.6928 63.1207 43.7372 63.2233V63.2793H43.0618C43.0291 63.2046 43.0034 63.1055 42.9848 62.9818C42.9661 62.8559 42.9568 62.7392 42.9568 62.6319ZM43.0688 60.9836L43.0758 61.4385H42.4213C42.237 61.4385 42.0726 61.4537 41.9279 61.484C41.7833 61.512 41.6619 61.5552 41.564 61.6135C41.466 61.6718 41.3913 61.7453 41.34 61.834C41.2887 61.9203 41.263 62.0218 41.263 62.1384C41.263 62.2574 41.2898 62.3659 41.3435 62.4639C41.3971 62.5619 41.4776 62.64 41.5849 62.6984C41.6946 62.7544 41.8287 62.7824 41.9874 62.7824C42.1857 62.7824 42.3607 62.7404 42.5123 62.6564C42.664 62.5724 42.7841 62.4697 42.8728 62.3484C42.9638 62.2271 43.0128 62.1093 43.0198 61.995L43.2962 62.3064C43.2799 62.4044 43.2356 62.5129 43.1632 62.6319C43.0909 62.7509 42.9941 62.8652 42.8728 62.9748C42.7538 63.0822 42.6115 63.172 42.4458 63.2443C42.2825 63.3143 42.0982 63.3493 41.8929 63.3493C41.6363 63.3493 41.4111 63.2991 41.2175 63.1988C41.0262 63.0985 40.8769 62.9643 40.7696 62.7964C40.6646 62.626 40.6121 62.4359 40.6121 62.2259C40.6121 62.023 40.6517 61.8445 40.7311 61.6905C40.8104 61.5342 40.9247 61.4047 41.074 61.3021C41.2233 61.1971 41.403 61.1177 41.6129 61.0641C41.8229 61.0104 42.0574 60.9836 42.3164 60.9836H43.0688ZM47.0512 62.2749C47.0512 62.1816 47.0302 62.0953 46.9882 62.016C46.9486 61.9343 46.8658 61.8608 46.7398 61.7955C46.6161 61.7278 46.4295 61.6695 46.1799 61.6205C45.9699 61.5762 45.7797 61.5237 45.6094 61.463C45.4414 61.4024 45.298 61.3289 45.179 61.2426C45.0623 61.1562 44.9725 61.0548 44.9095 60.9381C44.8465 60.8214 44.815 60.685 44.815 60.5287C44.815 60.3793 44.8477 60.2382 44.913 60.1052C44.9807 59.9722 45.0752 59.8544 45.1965 59.7518C45.3201 59.6491 45.4683 59.5686 45.6409 59.5103C45.8136 59.452 46.006 59.4228 46.2183 59.4228C46.5216 59.4228 46.7806 59.4765 46.9952 59.5838C47.2099 59.6911 47.3744 59.8346 47.4887 60.0142C47.603 60.1915 47.6602 60.3887 47.6602 60.6056H47.0127C47.0127 60.5007 46.9812 60.3992 46.9183 60.3012C46.8576 60.2009 46.7678 60.118 46.6488 60.0527C46.5321 59.9874 46.3887 59.9547 46.2183 59.9547C46.0387 59.9547 45.8929 59.9827 45.7809 60.0387C45.6713 60.0924 45.5908 60.1612 45.5394 60.2452C45.4904 60.3292 45.4659 60.4178 45.4659 60.5112C45.4659 60.5811 45.4776 60.6441 45.5009 60.7001C45.5266 60.7538 45.5709 60.804 45.6339 60.8506C45.6969 60.8949 45.7856 60.9369 45.8999 60.9766C46.0142 61.0163 46.16 61.0559 46.3373 61.0956C46.6476 61.1656 46.9031 61.2496 47.1037 61.3475C47.3044 61.4455 47.4537 61.5657 47.5517 61.708C47.6497 61.8503 47.6987 62.023 47.6987 62.2259C47.6987 62.3916 47.6637 62.5432 47.5937 62.6809C47.526 62.8185 47.4269 62.9375 47.2962 63.0378C47.1679 63.1358 47.0139 63.2128 46.8343 63.2688C46.657 63.3225 46.4575 63.3493 46.2358 63.3493C45.9022 63.3493 45.6199 63.2898 45.389 63.1708C45.158 63.0518 44.983 62.8978 44.864 62.7089C44.745 62.5199 44.6855 62.3204 44.6855 62.1104H45.3365C45.3458 62.2878 45.3971 62.4289 45.4904 62.5339C45.5838 62.6365 45.6981 62.71 45.8334 62.7544C45.9687 62.7964 46.1029 62.8174 46.2358 62.8174C46.4132 62.8174 46.5613 62.794 46.6803 62.7474C46.8016 62.7007 46.8938 62.6365 46.9568 62.5549C47.0197 62.4732 47.0512 62.3799 47.0512 62.2749ZM50.9777 62.2749C50.9777 62.1816 50.9567 62.0953 50.9147 62.016C50.8751 61.9343 50.7923 61.8608 50.6663 61.7955C50.5426 61.7278 50.356 61.6695 50.1063 61.6205C49.8964 61.5762 49.7062 61.5237 49.5359 61.463C49.3679 61.4024 49.2245 61.3289 49.1055 61.2426C48.9888 61.1562 48.899 61.0548 48.836 60.9381C48.773 60.8214 48.7415 60.685 48.7415 60.5287C48.7415 60.3793 48.7742 60.2382 48.8395 60.1052C48.9072 59.9722 49.0017 59.8544 49.123 59.7518C49.2466 59.6491 49.3948 59.5686 49.5674 59.5103C49.7401 59.452 49.9325 59.4228 50.1448 59.4228C50.4481 59.4228 50.7071 59.4765 50.9217 59.5838C51.1364 59.6911 51.3009 59.8346 51.4152 60.0142C51.5295 60.1915 51.5866 60.3887 51.5866 60.6056H50.9392C50.9392 60.5007 50.9077 60.3992 50.8447 60.3012C50.7841 60.2009 50.6943 60.118 50.5753 60.0527C50.4586 59.9874 50.3151 59.9547 50.1448 59.9547C49.9652 59.9547 49.8194 59.9827 49.7074 60.0387C49.5977 60.0924 49.5173 60.1612 49.4659 60.2452C49.4169 60.3292 49.3924 60.4178 49.3924 60.5112C49.3924 60.5811 49.4041 60.6441 49.4274 60.7001C49.4531 60.7538 49.4974 60.804 49.5604 60.8506C49.6234 60.8949 49.7121 60.9369 49.8264 60.9766C49.9407 61.0163 50.0865 61.0559 50.2638 61.0956C50.5741 61.1656 50.8296 61.2496 51.0302 61.3475C51.2309 61.4455 51.3802 61.5657 51.4782 61.708C51.5762 61.8503 51.6251 62.023 51.6251 62.2259C51.6251 62.3916 51.5901 62.5432 51.5202 62.6809C51.4525 62.8185 51.3533 62.9375 51.2227 63.0378C51.0944 63.1358 50.9404 63.2128 50.7608 63.2688C50.5834 63.3225 50.384 63.3493 50.1623 63.3493C49.8287 63.3493 49.5464 63.2898 49.3154 63.1708C49.0845 63.0518 48.9095 62.8978 48.7905 62.7089C48.6715 62.5199 48.612 62.3204 48.612 62.1104H49.263C49.2723 62.2878 49.3236 62.4289 49.4169 62.5339C49.5103 62.6365 49.6246 62.71 49.7599 62.7544C49.8952 62.7964 50.0294 62.8174 50.1623 62.8174C50.3396 62.8174 50.4878 62.794 50.6068 62.7474C50.7281 62.7007 50.8202 62.6365 50.8832 62.5549C50.9462 62.4732 50.9777 62.3799 50.9777 62.2749ZM57.5149 61.9915C57.5149 61.8725 57.4962 61.7675 57.4589 61.6765C57.4239 61.5832 57.3609 61.4992 57.2699 61.4245C57.1813 61.3499 57.0576 61.2787 56.899 61.2111C56.7426 61.1434 56.5443 61.0746 56.304 61.0046C56.0521 60.9299 55.8246 60.8471 55.6216 60.7561C55.4187 60.6628 55.2448 60.5567 55.1002 60.4377C54.9555 60.3187 54.8447 60.1822 54.7677 60.0282C54.6907 59.8742 54.6523 59.6981 54.6523 59.4998C54.6523 59.3015 54.6931 59.1183 54.7747 58.9504C54.8564 58.7824 54.973 58.6366 55.1247 58.5129C55.2787 58.3869 55.4618 58.2889 55.6741 58.219C55.8864 58.149 56.1232 58.114 56.3845 58.114C56.7671 58.114 57.0914 58.1875 57.3574 58.3344C57.6257 58.4791 57.8298 58.6692 57.9698 58.9049C58.1098 59.1382 58.1798 59.3878 58.1798 59.6538H57.5079C57.5079 59.4625 57.4671 59.2933 57.3854 59.1463C57.3037 58.997 57.1801 58.8804 57.0144 58.7964C56.8488 58.7101 56.6388 58.6669 56.3845 58.6669C56.1442 58.6669 55.9459 58.7031 55.7896 58.7754C55.6333 58.8477 55.5166 58.9457 55.4396 59.0693C55.365 59.193 55.3277 59.3341 55.3277 59.4928C55.3277 59.6001 55.3498 59.6981 55.3942 59.7868C55.4408 59.8731 55.512 59.9536 55.6076 60.0282C55.7056 60.1029 55.8293 60.1717 55.9786 60.2347C56.1302 60.2977 56.311 60.3583 56.521 60.4167C56.8103 60.4983 57.0599 60.5893 57.2699 60.6896C57.4799 60.79 57.6525 60.9031 57.7878 61.0291C57.9255 61.1527 58.027 61.2939 58.0923 61.4525C58.16 61.6088 58.1938 61.7862 58.1938 61.9845C58.1938 62.1921 58.1518 62.3799 58.0678 62.5479C57.9838 62.7159 57.8637 62.8594 57.7074 62.9783C57.551 63.0973 57.3632 63.1895 57.1439 63.2548C56.927 63.3178 56.6843 63.3493 56.416 63.3493C56.1804 63.3493 55.9483 63.3166 55.7196 63.2513C55.4933 63.186 55.2868 63.088 55.1002 62.9573C54.9159 62.8267 54.7677 62.6657 54.6558 62.4744C54.5461 62.2808 54.4913 62.0568 54.4913 61.8025H55.1632C55.1632 61.9775 55.197 62.1279 55.2647 62.2539C55.3323 62.3776 55.4245 62.4802 55.5411 62.5619C55.6601 62.6435 55.7943 62.7042 55.9436 62.7439C56.0952 62.7812 56.2527 62.7999 56.416 62.7999C56.6517 62.7999 56.8511 62.7672 57.0144 62.7019C57.1778 62.6365 57.3014 62.5432 57.3854 62.4219C57.4717 62.3006 57.5149 62.1571 57.5149 61.9915ZM60.752 63.3493C60.4883 63.3493 60.2492 63.305 60.0346 63.2163C59.8222 63.1253 59.6391 62.9982 59.4851 62.8349C59.3335 62.6715 59.2168 62.4779 59.1352 62.2539C59.0535 62.03 59.0127 61.785 59.0127 61.519V61.372C59.0127 61.0641 59.0582 60.79 59.1492 60.5497C59.2402 60.307 59.3638 60.1017 59.5201 59.9337C59.6764 59.7658 59.8537 59.6386 60.0521 59.5523C60.2504 59.466 60.4557 59.4228 60.668 59.4228C60.9386 59.4228 61.1719 59.4695 61.3679 59.5628C61.5662 59.6561 61.7283 59.7868 61.8543 59.9547C61.9803 60.1204 62.0736 60.3163 62.1343 60.5427C62.1949 60.7666 62.2253 61.0116 62.2253 61.2776V61.568H59.3976V61.0396H61.5779V60.9906C61.5685 60.8226 61.5335 60.6593 61.4729 60.5007C61.4145 60.342 61.3212 60.2114 61.1929 60.1087C61.0646 60.0061 60.8896 59.9547 60.668 59.9547C60.521 59.9547 60.3857 59.9862 60.262 60.0492C60.1384 60.1099 60.0322 60.2009 59.9436 60.3222C59.8549 60.4435 59.7861 60.5916 59.7371 60.7666C59.6881 60.9416 59.6636 61.1434 59.6636 61.372V61.519C59.6636 61.6987 59.6881 61.8678 59.7371 62.0265C59.7884 62.1828 59.8619 62.3204 59.9576 62.4394C60.0556 62.5584 60.1734 62.6517 60.311 62.7194C60.451 62.787 60.6096 62.8209 60.787 62.8209C61.0156 62.8209 61.2092 62.7742 61.3679 62.6809C61.5265 62.5876 61.6653 62.4627 61.7843 62.3064L62.1763 62.6179C62.0946 62.7415 61.9908 62.8594 61.8648 62.9713C61.7388 63.0833 61.5837 63.1743 61.3994 63.2443C61.2174 63.3143 61.0016 63.3493 60.752 63.3493ZM63.8526 60.0877V63.2793H63.2051V59.4928H63.8351L63.8526 60.0877ZM65.0354 59.4718L65.0319 60.0737C64.9782 60.062 64.9269 60.055 64.8779 60.0527C64.8313 60.048 64.7776 60.0457 64.7169 60.0457C64.5676 60.0457 64.4358 60.069 64.3215 60.1157C64.2072 60.1624 64.1104 60.2277 64.031 60.3117C63.9517 60.3957 63.8887 60.496 63.8421 60.6126C63.7977 60.727 63.7686 60.8529 63.7546 60.9906L63.5726 61.0956C63.5726 60.8669 63.5948 60.6523 63.6391 60.4517C63.6857 60.251 63.7569 60.0737 63.8526 59.9197C63.9482 59.7634 64.0695 59.6421 64.2165 59.5558C64.3658 59.4671 64.5431 59.4228 64.7484 59.4228C64.7951 59.4228 64.8488 59.4286 64.9094 59.4403C64.9701 59.4496 65.0121 59.4601 65.0354 59.4718ZM67.0721 62.6949L68.108 59.4928H68.7694L67.4081 63.2793H66.9742L67.0721 62.6949ZM66.2078 59.4928L67.2751 62.7124L67.3486 63.2793H66.9147L65.5428 59.4928H66.2078ZM70.3197 59.4928V63.2793H69.6688V59.4928H70.3197ZM69.6198 58.4884C69.6198 58.3834 69.6513 58.2948 69.7143 58.2225C69.7796 58.1501 69.8753 58.114 70.0013 58.114C70.1249 58.114 70.2194 58.1501 70.2847 58.2225C70.3524 58.2948 70.3862 58.3834 70.3862 58.4884C70.3862 58.5887 70.3524 58.6751 70.2847 58.7474C70.2194 58.8174 70.1249 58.8524 70.0013 58.8524C69.8753 58.8524 69.7796 58.8174 69.7143 58.7474C69.6513 58.6751 69.6198 58.5887 69.6198 58.4884ZM73.0984 62.8174C73.2523 62.8174 73.3947 62.7859 73.5253 62.7229C73.656 62.6599 73.7633 62.5736 73.8473 62.4639C73.9312 62.3519 73.9791 62.2248 73.9907 62.0825H74.6067C74.595 62.3064 74.5192 62.5152 74.3792 62.7089C74.2415 62.9002 74.0607 63.0553 73.8368 63.1743C73.6128 63.291 73.3667 63.3493 73.0984 63.3493C72.8137 63.3493 72.5653 63.2991 72.353 63.1988C72.143 63.0985 71.968 62.9608 71.828 62.7859C71.6904 62.6109 71.5866 62.4102 71.5166 62.1839C71.4489 61.9553 71.4151 61.7138 71.4151 61.4595V61.3126C71.4151 61.0583 71.4489 60.8179 71.5166 60.5916C71.5866 60.363 71.6904 60.1612 71.828 59.9862C71.968 59.8112 72.143 59.6736 72.353 59.5733C72.5653 59.473 72.8137 59.4228 73.0984 59.4228C73.3947 59.4228 73.6536 59.4835 73.8753 59.6048C74.0969 59.7238 74.2707 59.8871 74.3967 60.0947C74.525 60.3 74.595 60.5333 74.6067 60.7946H73.9907C73.9791 60.6383 73.9347 60.4972 73.8578 60.3712C73.7831 60.2452 73.6804 60.1449 73.5498 60.0702C73.4215 59.9932 73.271 59.9547 73.0984 59.9547C72.9001 59.9547 72.7332 59.9944 72.5979 60.0737C72.4649 60.1507 72.3588 60.2557 72.2795 60.3887C72.2025 60.5193 72.1465 60.6651 72.1115 60.8261C72.0788 60.9848 72.0625 61.1469 72.0625 61.3126V61.4595C72.0625 61.6252 72.0788 61.7885 72.1115 61.9495C72.1441 62.1104 72.199 62.2563 72.276 62.3869C72.3553 62.5176 72.4614 62.6225 72.5944 62.7019C72.7297 62.7789 72.8977 62.8174 73.0984 62.8174ZM77.1298 63.3493C76.8662 63.3493 76.6271 63.305 76.4124 63.2163C76.2001 63.1253 76.017 62.9982 75.863 62.8349C75.7114 62.6715 75.5947 62.4779 75.513 62.2539C75.4314 62.03 75.3906 61.785 75.3906 61.519V61.372C75.3906 61.0641 75.4361 60.79 75.527 60.5497C75.618 60.307 75.7417 60.1017 75.898 59.9337C76.0543 59.7658 76.2316 59.6386 76.4299 59.5523C76.6282 59.466 76.8335 59.4228 77.0458 59.4228C77.3165 59.4228 77.5498 59.4695 77.7458 59.5628C77.9441 59.6561 78.1062 59.7868 78.2322 59.9547C78.3582 60.1204 78.4515 60.3163 78.5122 60.5427C78.5728 60.7666 78.6031 61.0116 78.6031 61.2776V61.568H75.7755V61.0396H77.9557V60.9906C77.9464 60.8226 77.9114 60.6593 77.8507 60.5007C77.7924 60.342 77.6991 60.2114 77.5708 60.1087C77.4425 60.0061 77.2675 59.9547 77.0458 59.9547C76.8989 59.9547 76.7635 59.9862 76.6399 60.0492C76.5162 60.1099 76.4101 60.2009 76.3214 60.3222C76.2328 60.4435 76.164 60.5916 76.115 60.7666C76.066 60.9416 76.0415 61.1434 76.0415 61.372V61.519C76.0415 61.6987 76.066 61.8678 76.115 62.0265C76.1663 62.1828 76.2398 62.3204 76.3354 62.4394C76.4334 62.5584 76.5512 62.6517 76.6889 62.7194C76.8289 62.787 76.9875 62.8209 77.1648 62.8209C77.3935 62.8209 77.5871 62.7742 77.7458 62.6809C77.9044 62.5876 78.0432 62.4627 78.1622 62.3064L78.5541 62.6179C78.4725 62.7415 78.3687 62.8594 78.2427 62.9713C78.1167 63.0833 77.9616 63.1743 77.7772 63.2443C77.5953 63.3143 77.3795 63.3493 77.1298 63.3493Z" fill="#F6F1F2"/>
<rect x="145.379" y="47.0856" width="17.5745" height="17.5959" rx="8.78727" stroke="#9FBFE5" stroke-opacity="0.996078" stroke-width="0.499255"/>
<path d="M152.81 55.6009L154.179 56.9701L156.96 54.1886C156.388 53.2499 155.357 52.6211 154.177 52.6211C152.375 52.6211 150.915 54.0813 150.915 55.8829C150.915 57.6845 152.375 59.1447 154.177 59.1447C155.856 59.1447 157.237 57.8762 157.417 56.2453" stroke="#9FBFE5" stroke-opacity="0.996078" stroke-width="0.895884" stroke-linecap="round" stroke-linejoin="round"/>
<path d="M128.536 71.2161V71.1767C128.536 70.8355 128.572 70.5162 128.644 70.2187C128.715 69.9213 128.809 69.6536 128.925 69.4156C129.042 69.1776 129.17 68.9755 129.308 68.8093C129.448 68.6413 129.585 68.5171 129.72 68.4366L129.796 68.6518C129.68 68.734 129.566 68.853 129.452 69.0088C129.34 69.1645 129.239 69.3517 129.148 69.5704C129.057 69.7892 128.984 70.0333 128.93 70.3027C128.876 70.5722 128.848 70.8609 128.848 71.1689V71.2214C128.848 71.5293 128.876 71.818 128.93 72.0875C128.984 72.357 129.057 72.601 129.148 72.8198C129.239 73.0402 129.34 73.2292 129.452 73.3867C129.566 73.5459 129.68 73.6684 129.796 73.7541L129.72 73.9562C129.585 73.8758 129.448 73.7533 129.308 73.5888C129.17 73.4261 129.042 73.2266 128.925 72.9904C128.809 72.7559 128.715 72.4891 128.644 72.1899C128.572 71.8906 128.536 71.5661 128.536 71.2161ZM130.868 68.6912V72.7227H130.555V68.6912H130.868ZM132.299 69.8828V72.7227H131.987V69.8828H132.299ZM131.932 69.0613C131.932 69.0018 131.95 68.9519 131.987 68.9117C132.025 68.8697 132.078 68.8487 132.144 68.8487C132.211 68.8487 132.263 68.8697 132.302 68.9117C132.342 68.9519 132.362 69.0018 132.362 69.0613C132.362 69.119 132.342 69.1689 132.302 69.2109C132.263 69.2511 132.211 69.2712 132.144 69.2712C132.078 69.2712 132.025 69.2511 131.987 69.2109C131.95 69.1689 131.932 69.119 131.932 69.0613ZM133.678 70.4707V72.7227H133.363V69.8828H133.665L133.678 70.4707ZM133.62 71.1269L133.468 71.0481C133.478 70.8801 133.51 70.7227 133.562 70.5757C133.617 70.4287 133.692 70.2992 133.788 70.1872C133.884 70.0752 134 69.9878 134.134 69.9248C134.269 69.8618 134.422 69.8303 134.594 69.8303C134.732 69.8303 134.857 69.8495 134.969 69.888C135.083 69.9248 135.179 69.9834 135.258 70.0639C135.338 70.1426 135.4 70.2459 135.444 70.3736C135.488 70.5013 135.51 70.6544 135.51 70.8329V72.7227H135.197V70.8434C135.197 70.6544 135.168 70.5066 135.108 70.3998C135.05 70.2931 134.969 70.217 134.864 70.1715C134.761 70.126 134.641 70.1032 134.505 70.1032C134.344 70.1032 134.207 70.1365 134.095 70.203C133.985 70.2677 133.895 70.3526 133.825 70.4576C133.757 70.5608 133.706 70.6719 133.673 70.7909C133.639 70.9081 133.622 71.0201 133.62 71.1269ZM135.507 70.8801L135.297 70.8854C135.306 70.7472 135.337 70.6151 135.392 70.4891C135.448 70.3631 135.524 70.2511 135.62 70.1531C135.716 70.0534 135.831 69.9746 135.964 69.9169C136.099 69.8592 136.25 69.8303 136.418 69.8303C136.565 69.8303 136.696 69.8504 136.812 69.8906C136.927 69.9291 137.024 69.9913 137.103 70.077C137.183 70.161 137.245 70.2686 137.287 70.3998C137.329 70.5311 137.35 70.6885 137.35 70.8723V72.7227H137.035V70.8696C137.035 70.6684 137.005 70.5127 136.946 70.4025C136.888 70.2905 136.807 70.2126 136.704 70.1689C136.601 70.1251 136.48 70.1032 136.342 70.1032C136.205 70.105 136.085 70.1304 135.982 70.1794C135.879 70.2266 135.792 70.2896 135.722 70.3683C135.654 70.4453 135.602 70.5284 135.565 70.6177C135.53 70.7069 135.511 70.7944 135.507 70.8801ZM138.721 69.8828V72.7227H138.408V69.8828H138.721ZM138.353 69.0613C138.353 69.0018 138.372 68.9519 138.408 68.9117C138.447 68.8697 138.499 68.8487 138.566 68.8487C138.632 68.8487 138.685 68.8697 138.723 68.9117C138.764 68.9519 138.784 69.0018 138.784 69.0613C138.784 69.119 138.764 69.1689 138.723 69.2109C138.685 69.2511 138.632 69.2712 138.566 69.2712C138.499 69.2712 138.447 69.2511 138.408 69.2109C138.372 69.1689 138.353 69.119 138.353 69.0613ZM140.876 69.8828V70.14H139.454V69.8828H140.876ZM139.976 69.1531H140.288V72.0324C140.288 72.1636 140.306 72.2625 140.341 72.329C140.376 72.3954 140.421 72.4401 140.477 72.4628C140.533 72.4856 140.594 72.4969 140.659 72.4969C140.706 72.4969 140.751 72.4943 140.795 72.4891C140.839 72.4821 140.878 72.4751 140.913 72.4681L140.926 72.7332C140.888 72.7454 140.838 72.755 140.777 72.762C140.715 72.7708 140.654 72.7751 140.593 72.7751C140.472 72.7751 140.365 72.7533 140.273 72.7095C140.18 72.664 140.107 72.587 140.055 72.4786C140.002 72.3683 139.976 72.2187 139.976 72.0297V69.1531ZM142.856 72.7751C142.671 72.7751 142.5 72.741 142.344 72.6728C142.19 72.6045 142.056 72.5083 141.94 72.3841C141.826 72.2598 141.738 72.1129 141.675 71.9431C141.614 71.7717 141.583 71.5844 141.583 71.3815V71.2686C141.583 71.0499 141.616 70.8521 141.68 70.6754C141.745 70.4987 141.834 70.3473 141.948 70.2214C142.062 70.0954 142.191 69.9991 142.337 69.9326C142.484 69.8644 142.638 69.8303 142.798 69.8303C142.979 69.8303 143.139 69.8627 143.279 69.9274C143.419 69.9904 143.536 70.0805 143.631 70.1977C143.727 70.3132 143.799 70.4506 143.848 70.6098C143.897 70.7673 143.922 70.9414 143.922 71.1321V71.3237H141.772V71.056H143.61V71.0193C143.606 70.86 143.574 70.7113 143.512 70.5731C143.453 70.4331 143.364 70.3193 143.245 70.2319C143.126 70.1444 142.977 70.1006 142.798 70.1006C142.666 70.1006 142.543 70.1286 142.431 70.1846C142.321 70.2406 142.225 70.3211 142.145 70.4261C142.066 70.5293 142.005 70.6527 141.961 70.7962C141.919 70.9379 141.898 71.0954 141.898 71.2686V71.3815C141.898 71.5389 141.921 71.6859 141.966 71.8224C142.014 71.9571 142.08 72.0761 142.166 72.1794C142.253 72.2826 142.357 72.3631 142.476 72.4208C142.595 72.4786 142.726 72.5074 142.869 72.5074C143.037 72.5074 143.186 72.4768 143.316 72.4156C143.445 72.3526 143.561 72.2537 143.665 72.119L143.861 72.2712C143.8 72.3622 143.723 72.4462 143.631 72.5232C143.54 72.6002 143.43 72.6614 143.302 72.7069C143.175 72.7524 143.026 72.7751 142.856 72.7751ZM146.61 72.1715V68.6912H146.925V72.7227H146.631L146.61 72.1715ZM144.639 71.3316V71.2765C144.639 71.056 144.665 70.8574 144.715 70.6807C144.766 70.5022 144.839 70.35 144.933 70.224C145.029 70.0962 145.145 69.9991 145.28 69.9326C145.414 69.8644 145.567 69.8303 145.736 69.8303C145.903 69.8303 146.05 69.8574 146.177 69.9116C146.305 69.9659 146.414 70.0438 146.505 70.1452C146.598 70.2467 146.672 70.3675 146.728 70.5074C146.786 70.6474 146.828 70.8032 146.854 70.9746V71.6754C146.833 71.8364 146.795 71.9843 146.739 72.119C146.683 72.252 146.609 72.3683 146.516 72.4681C146.423 72.5661 146.311 72.6422 146.18 72.6964C146.05 72.7489 145.901 72.7751 145.731 72.7751C145.563 72.7751 145.412 72.7402 145.277 72.6702C145.142 72.6002 145.028 72.5013 144.933 72.3736C144.839 72.2441 144.766 72.091 144.715 71.9143C144.665 71.7375 144.639 71.5433 144.639 71.3316ZM144.954 71.2765V71.3316C144.954 71.4978 144.971 71.6518 145.004 71.7935C145.037 71.9353 145.088 72.0586 145.156 72.1636C145.225 72.2686 145.311 72.3508 145.416 72.4103C145.521 72.4698 145.645 72.4996 145.789 72.4996C145.969 72.4996 146.12 72.4654 146.243 72.3972C146.365 72.3272 146.463 72.2353 146.537 72.1216C146.61 72.0061 146.664 71.8801 146.697 71.7437V70.9274C146.676 70.8347 146.645 70.7402 146.605 70.6439C146.565 70.5477 146.51 70.4593 146.44 70.3788C146.372 70.2966 146.284 70.231 146.177 70.182C146.072 70.1312 145.945 70.1059 145.794 70.1059C145.649 70.1059 145.524 70.1356 145.419 70.1951C145.314 70.2546 145.226 70.3377 145.156 70.4445C145.088 70.5494 145.037 70.6728 145.004 70.8145C144.971 70.9563 144.954 71.1102 144.954 71.2765ZM150.762 68.9012V72.7227H150.441V68.9012H150.762ZM152.071 68.9012V69.1794H149.134V68.9012H152.071ZM152.957 70.3526V72.7227H152.644V69.8828H152.949L152.957 70.3526ZM153.962 69.8618L153.954 70.1505C153.919 70.1452 153.885 70.1409 153.852 70.1374C153.819 70.1339 153.783 70.1321 153.744 70.1321C153.608 70.1321 153.488 70.1575 153.385 70.2082C153.283 70.2572 153.197 70.3263 153.127 70.4156C153.057 70.5031 153.004 70.6063 152.967 70.7253C152.931 70.8425 152.91 70.9685 152.904 71.1032L152.789 71.1479C152.789 70.9624 152.808 70.79 152.847 70.6308C152.885 70.4716 152.944 70.3325 153.022 70.2135C153.103 70.0927 153.204 69.9991 153.324 69.9326C153.447 69.8644 153.59 69.8303 153.755 69.8303C153.795 69.8303 153.834 69.8338 153.873 69.8408C153.913 69.846 153.943 69.853 153.962 69.8618ZM155.029 69.8828V72.7227H154.716V69.8828H155.029ZM154.661 69.0613C154.661 69.0018 154.679 68.9519 154.716 68.9117C154.755 68.8697 154.807 68.8487 154.874 68.8487C154.94 68.8487 154.993 68.8697 155.031 68.9117C155.071 68.9519 155.092 69.0018 155.092 69.0613C155.092 69.119 155.071 69.1689 155.031 69.2109C154.993 69.2511 154.94 69.2712 154.874 69.2712C154.807 69.2712 154.755 69.2511 154.716 69.2109C154.679 69.1689 154.661 69.119 154.661 69.0613ZM157.838 72.2135V70.7489C157.838 70.6142 157.81 70.4978 157.754 70.3998C157.698 70.3018 157.616 70.2266 157.507 70.1741C157.399 70.1216 157.265 70.0954 157.106 70.0954C156.959 70.0954 156.827 70.1216 156.712 70.1741C156.598 70.2249 156.508 70.294 156.441 70.3815C156.377 70.4672 156.344 70.5626 156.344 70.6675L156.029 70.6649C156.029 70.5582 156.056 70.455 156.108 70.3552C156.161 70.2555 156.235 70.1662 156.331 70.0875C156.427 70.0088 156.542 69.9466 156.675 69.9011C156.81 69.8539 156.958 69.8303 157.119 69.8303C157.322 69.8303 157.5 69.8644 157.654 69.9326C157.81 70.0009 157.931 70.1032 158.019 70.2397C158.106 70.3762 158.15 70.5477 158.15 70.7542V72.1269C158.15 72.2248 158.157 72.3263 158.171 72.4313C158.187 72.5363 158.209 72.6229 158.237 72.6912V72.7227H157.903C157.882 72.6597 157.866 72.5809 157.854 72.4864C157.843 72.3902 157.838 72.2992 157.838 72.2135ZM157.911 71.0691L157.917 71.3106H157.3C157.139 71.3106 156.994 71.3255 156.867 71.3552C156.741 71.3832 156.634 71.4252 156.546 71.4812C156.459 71.5354 156.392 71.6011 156.344 71.678C156.299 71.755 156.276 71.8425 156.276 71.9405C156.276 72.042 156.301 72.1347 156.352 72.2187C156.405 72.3027 156.478 72.3701 156.573 72.4208C156.669 72.4698 156.783 72.4943 156.914 72.4943C157.089 72.4943 157.243 72.4619 157.376 72.3972C157.511 72.3325 157.622 72.2476 157.709 72.1426C157.797 72.0376 157.855 71.923 157.885 71.7988L158.022 71.9799C157.999 72.0674 157.957 72.1575 157.896 72.2502C157.836 72.3412 157.758 72.4269 157.662 72.5074C157.566 72.5862 157.452 72.6509 157.321 72.7017C157.191 72.7507 157.044 72.7751 156.88 72.7751C156.694 72.7751 156.532 72.7402 156.394 72.6702C156.258 72.6002 156.151 72.5048 156.074 72.3841C155.999 72.2616 155.961 72.1234 155.961 71.9694C155.961 71.8294 155.991 71.7043 156.05 71.5941C156.11 71.4821 156.196 71.3876 156.308 71.3106C156.421 71.2318 156.558 71.1724 156.717 71.1321C156.878 71.0901 157.058 71.0691 157.258 71.0691H157.911ZM159.566 68.6912V72.7227H159.253V68.6912H159.566ZM163.557 71.1662H162.468V70.8906H163.557C163.784 70.8906 163.969 70.8539 164.111 70.7804C164.254 70.7052 164.358 70.6037 164.423 70.4759C164.49 70.3482 164.523 70.2047 164.523 70.0455C164.523 69.8898 164.49 69.7463 164.423 69.6151C164.358 69.4838 164.254 69.3788 164.111 69.3001C163.969 69.2196 163.784 69.1794 163.557 69.1794H162.581V72.7227H162.258V68.9012H163.557C163.837 68.9012 164.072 68.9493 164.263 69.0455C164.455 69.1417 164.601 69.2756 164.699 69.4471C164.797 69.6186 164.846 69.8163 164.846 70.0403C164.846 70.2747 164.797 70.4768 164.699 70.6466C164.601 70.8145 164.456 70.9431 164.266 71.0324C164.075 71.1216 163.839 71.1662 163.557 71.1662ZM166.781 72.7751C166.595 72.7751 166.425 72.741 166.269 72.6728C166.115 72.6045 165.98 72.5083 165.865 72.3841C165.751 72.2598 165.663 72.1129 165.6 71.9431C165.539 71.7717 165.508 71.5844 165.508 71.3815V71.2686C165.508 71.0499 165.54 70.8521 165.605 70.6754C165.67 70.4987 165.759 70.3473 165.873 70.2214C165.986 70.0954 166.116 69.9991 166.261 69.9326C166.408 69.8644 166.562 69.8303 166.723 69.8303C166.903 69.8303 167.063 69.8627 167.203 69.9274C167.343 69.9904 167.461 70.0805 167.555 70.1977C167.651 70.3132 167.724 70.4506 167.773 70.6098C167.822 70.7673 167.846 70.9414 167.846 71.1321V71.3237H165.697V71.056H167.534V71.0193C167.531 70.86 167.498 70.7113 167.437 70.5731C167.378 70.4331 167.288 70.3193 167.169 70.2319C167.05 70.1444 166.902 70.1006 166.723 70.1006C166.59 70.1006 166.468 70.1286 166.356 70.1846C166.245 70.2406 166.15 70.3211 166.07 70.4261C165.991 70.5293 165.93 70.6527 165.886 70.7962C165.844 70.9379 165.823 71.0954 165.823 71.2686V71.3815C165.823 71.5389 165.846 71.6859 165.891 71.8224C165.938 71.9571 166.005 72.0761 166.091 72.1794C166.178 72.2826 166.281 72.3631 166.4 72.4208C166.519 72.4786 166.651 72.5074 166.794 72.5074C166.962 72.5074 167.111 72.4768 167.24 72.4156C167.37 72.3526 167.486 72.2537 167.589 72.119L167.786 72.2712C167.725 72.3622 167.648 72.4462 167.555 72.5232C167.464 72.6002 167.355 72.6614 167.227 72.7069C167.099 72.7524 166.951 72.7751 166.781 72.7751ZM169.002 70.3526V72.7227H168.69V69.8828H168.994L169.002 70.3526ZM170.007 69.8618L170 70.1505C169.965 70.1452 169.93 70.1409 169.897 70.1374C169.864 70.1339 169.828 70.1321 169.79 70.1321C169.653 70.1321 169.533 70.1575 169.43 70.2082C169.329 70.2572 169.243 70.3263 169.173 70.4156C169.103 70.5031 169.049 70.6063 169.013 70.7253C168.976 70.8425 168.955 70.9685 168.95 71.1032L168.834 71.1479C168.834 70.9624 168.853 70.79 168.892 70.6308C168.93 70.4716 168.989 70.3325 169.068 70.2135C169.148 70.0927 169.249 69.9991 169.37 69.9326C169.492 69.8644 169.636 69.8303 169.8 69.8303C169.84 69.8303 169.88 69.8338 169.918 69.8408C169.958 69.846 169.988 69.853 170.007 69.8618ZM171.074 69.8828V72.7227H170.762V69.8828H171.074ZM170.706 69.0613C170.706 69.0018 170.725 68.9519 170.762 68.9117C170.8 68.8697 170.853 68.8487 170.919 68.8487C170.986 68.8487 171.038 68.8697 171.077 68.9117C171.117 68.9519 171.137 69.0018 171.137 69.0613C171.137 69.119 171.117 69.1689 171.077 69.2109C171.038 69.2511 170.986 69.2712 170.919 69.2712C170.853 69.2712 170.8 69.2511 170.762 69.2109C170.725 69.1689 170.706 69.119 170.706 69.0613ZM171.983 71.3473V71.2607C171.983 71.0542 172.013 70.8635 172.072 70.6885C172.132 70.5136 172.217 70.3622 172.327 70.2345C172.439 70.1067 172.573 70.0079 172.728 69.9379C172.884 69.8662 173.057 69.8303 173.248 69.8303C173.441 69.8303 173.615 69.8662 173.77 69.9379C173.926 70.0079 174.06 70.1067 174.172 70.2345C174.284 70.3622 174.37 70.5136 174.429 70.6885C174.489 70.8635 174.518 71.0542 174.518 71.2607V71.3473C174.518 71.5538 174.489 71.7445 174.429 71.9195C174.37 72.0927 174.284 72.2432 174.172 72.371C174.062 72.4987 173.929 72.5984 173.773 72.6702C173.617 72.7402 173.444 72.7751 173.253 72.7751C173.061 72.7751 172.887 72.7402 172.731 72.6702C172.575 72.5984 172.441 72.4987 172.329 72.371C172.217 72.2432 172.132 72.0927 172.072 71.9195C172.013 71.7445 171.983 71.5538 171.983 71.3473ZM172.295 71.2607V71.3473C172.295 71.5031 172.316 71.6509 172.358 71.7909C172.4 71.9291 172.462 72.0525 172.542 72.161C172.622 72.2677 172.722 72.3517 172.841 72.4129C172.96 72.4742 173.098 72.5048 173.253 72.5048C173.407 72.5048 173.543 72.4742 173.66 72.4129C173.779 72.3517 173.879 72.2677 173.959 72.161C174.04 72.0525 174.1 71.9291 174.14 71.7909C174.182 71.6509 174.203 71.5031 174.203 71.3473V71.2607C174.203 71.1067 174.182 70.9606 174.14 70.8224C174.1 70.6842 174.039 70.5608 173.957 70.4523C173.876 70.3438 173.776 70.2581 173.657 70.1951C173.539 70.1321 173.402 70.1006 173.248 70.1006C173.094 70.1006 172.958 70.1321 172.839 70.1951C172.721 70.2581 172.622 70.3438 172.539 70.4523C172.459 70.5608 172.398 70.6842 172.356 70.8224C172.315 70.9606 172.295 71.1067 172.295 71.2607ZM177.238 72.1715V68.6912H177.553V72.7227H177.259L177.238 72.1715ZM175.267 71.3316V71.2765C175.267 71.056 175.293 70.8574 175.343 70.6807C175.394 70.5022 175.467 70.35 175.561 70.224C175.657 70.0962 175.773 69.9991 175.908 69.9326C176.042 69.8644 176.195 69.8303 176.364 69.8303C176.531 69.8303 176.678 69.8574 176.805 69.9116C176.933 69.9659 177.042 70.0438 177.133 70.1452C177.226 70.2467 177.301 70.3675 177.357 70.5074C177.414 70.6474 177.456 70.8032 177.482 70.9746V71.6754C177.461 71.8364 177.423 71.9843 177.367 72.119C177.311 72.252 177.237 72.3683 177.144 72.4681C177.051 72.5661 176.939 72.6422 176.808 72.6964C176.678 72.7489 176.529 72.7751 176.359 72.7751C176.191 72.7751 176.04 72.7402 175.905 72.6702C175.77 72.6002 175.656 72.5013 175.561 72.3736C175.467 72.2441 175.394 72.091 175.343 71.9143C175.293 71.7375 175.267 71.5433 175.267 71.3316ZM175.582 71.2765V71.3316C175.582 71.4978 175.599 71.6518 175.632 71.7935C175.665 71.9353 175.716 72.0586 175.784 72.1636C175.853 72.2686 175.939 72.3508 176.044 72.4103C176.149 72.4698 176.273 72.4996 176.417 72.4996C176.597 72.4996 176.748 72.4654 176.871 72.3972C176.993 72.3272 177.091 72.2353 177.165 72.1216C177.238 72.0061 177.292 71.8801 177.325 71.7437V70.9274C177.304 70.8347 177.273 70.7402 177.233 70.6439C177.193 70.5477 177.138 70.4593 177.068 70.3788C177 70.2966 176.912 70.231 176.805 70.182C176.7 70.1312 176.573 70.1059 176.422 70.1059C176.277 70.1059 176.152 70.1356 176.047 70.1951C175.942 70.2546 175.854 70.3377 175.784 70.4445C175.716 70.5494 175.665 70.6728 175.632 70.8145C175.599 70.9563 175.582 71.1102 175.582 71.2765ZM179.541 71.1767V71.2161C179.541 71.5661 179.505 71.8906 179.433 72.1899C179.362 72.4891 179.267 72.7559 179.15 72.9904C179.033 73.2266 178.905 73.4261 178.767 73.5888C178.629 73.7533 178.491 73.8758 178.355 73.9562L178.279 73.7541C178.396 73.6719 178.51 73.552 178.622 73.3946C178.734 73.2371 178.836 73.0472 178.927 72.825C179.02 72.6045 179.093 72.3596 179.147 72.0901C179.202 71.8189 179.229 71.5293 179.229 71.2214V71.1689C179.229 70.8609 179.201 70.5722 179.145 70.3027C179.089 70.0315 179.014 69.7857 178.922 69.5652C178.829 69.3447 178.727 69.1557 178.615 68.9983C178.503 68.8408 178.391 68.7218 178.279 68.6413L178.355 68.4366C178.491 68.5171 178.629 68.6413 178.767 68.8093C178.905 68.9755 179.033 69.1776 179.15 69.4156C179.267 69.6536 179.362 69.9213 179.433 70.2187C179.505 70.5162 179.541 70.8355 179.541 71.1767Z" fill="#F6F1F2"/>
<path d="M166.937 56.9872L167.64 56.0213L166.583 55.7063L166.748 55.1814L167.805 55.5698L167.773 54.366H168.305L168.27 55.5908L169.313 55.2024L169.474 55.7378L168.4 56.0563L169.089 57.0047L168.655 57.3301L168.008 56.3223L167.374 57.3056L166.937 56.9872Z" fill="#929092"/>
<rect x="229.89" y="51.982" width="17.5745" height="17.5959" rx="8.78727" stroke="#9FBFE5" stroke-opacity="0.996078" stroke-width="0.499255"/>
<path d="M237.321 60.4974L238.69 61.8666L241.472 59.085C240.899 58.1464 239.869 57.5176 238.689 57.5176C236.887 57.5176 235.427 58.9778 235.427 60.7794C235.427 62.5809 236.887 64.0411 238.689 64.0411C240.367 64.0411 241.748 62.7727 241.929 61.1418" stroke="#9FBFE5" stroke-opacity="0.996078" stroke-width="0.895884" stroke-linecap="round" stroke-linejoin="round"/>
<rect x="314.402" y="51.982" width="17.5745" height="17.5959" rx="8.78727" stroke="#9FBFE5" stroke-opacity="0.996078" stroke-width="0.499255"/>
<path d="M321.833 60.4974L323.202 61.8666L325.984 59.085C325.411 58.1464 324.38 57.5176 323.2 57.5176C321.399 57.5176 319.938 58.9778 319.938 60.7794C319.938 62.5809 321.399 64.0411 323.2 64.0411C324.879 64.0411 326.26 62.7727 326.441 61.1418" stroke="#9FBFE5" stroke-opacity="0.996078" stroke-width="0.895884" stroke-linecap="round" stroke-linejoin="round"/>
<path d="M14.334 85.4727L355.666 85.4726" stroke="url(#paint1_linear_11044_3419)" stroke-width="0.447942" stroke-linecap="round"/>
<path d="M16.3042 104.223H15.2404L15.2474 103.673H16.3042C16.6682 103.673 16.9715 103.597 17.2141 103.446C17.4567 103.292 17.6387 103.077 17.76 102.802C17.8837 102.524 17.9455 102.2 17.9455 101.829V101.518C17.9455 101.226 17.9105 100.967 17.8405 100.741C17.7705 100.512 17.6679 100.319 17.5326 100.163C17.3973 100.005 17.2316 99.8844 17.0356 99.8027C16.842 99.7211 16.6192 99.6802 16.3672 99.6802H15.2194V99.1273H16.3672C16.7008 99.1273 17.0053 99.1833 17.2806 99.2953C17.5559 99.4049 17.7927 99.5648 17.991 99.7747C18.1917 99.9824 18.3456 100.234 18.4529 100.531C18.5603 100.825 18.6139 101.156 18.6139 101.525V101.829C18.6139 102.198 18.5603 102.53 18.4529 102.826C18.3456 103.12 18.1905 103.371 17.9875 103.579C17.7869 103.786 17.5442 103.946 17.2596 104.058C16.9773 104.168 16.6588 104.223 16.3042 104.223ZM15.6008 99.1273V104.223H14.9254V99.1273H15.6008ZM21.3261 104.293C21.0624 104.293 20.8233 104.248 20.6087 104.16C20.3964 104.069 20.2132 103.942 20.0592 103.778C19.9076 103.615 19.7909 103.421 19.7093 103.197C19.6276 102.973 19.5868 102.728 19.5868 102.462V102.315C19.5868 102.007 19.6323 101.733 19.7233 101.493C19.8143 101.25 19.9379 101.045 20.0942 100.877C20.2505 100.709 20.4279 100.582 20.6262 100.496C20.8245 100.409 21.0298 100.366 21.2421 100.366C21.5127 100.366 21.746 100.413 21.942 100.506C22.1403 100.599 22.3025 100.73 22.4284 100.898C22.5544 101.064 22.6477 101.26 22.7084 101.486C22.7691 101.71 22.7994 101.955 22.7994 102.221V102.511H19.9718V101.983H22.152V101.934C22.1426 101.766 22.1076 101.603 22.047 101.444C21.9887 101.285 21.8953 101.155 21.767 101.052C21.6387 100.949 21.4637 100.898 21.2421 100.898C21.0951 100.898 20.9598 100.93 20.8361 100.993C20.7125 101.053 20.6063 101.144 20.5177 101.266C20.429 101.387 20.3602 101.535 20.3112 101.71C20.2622 101.885 20.2377 102.087 20.2377 102.315V102.462C20.2377 102.642 20.2622 102.811 20.3112 102.97C20.3625 103.126 20.436 103.264 20.5317 103.383C20.6297 103.502 20.7475 103.595 20.8851 103.663C21.0251 103.73 21.1838 103.764 21.3611 103.764C21.5897 103.764 21.7834 103.718 21.942 103.624C22.1006 103.531 22.2395 103.406 22.3584 103.25L22.7504 103.561C22.6687 103.685 22.5649 103.803 22.4389 103.915C22.3129 104.027 22.1578 104.118 21.9735 104.188C21.7915 104.258 21.5757 104.293 21.3261 104.293ZM24.8816 103.638L25.9175 100.436H26.5789L25.2176 104.223H24.7836L24.8816 103.638ZM24.0172 100.436L25.0846 103.656L25.1581 104.223H24.7241L23.3523 100.436H24.0172ZM28.1292 100.436V104.223H27.4783V100.436H28.1292ZM27.4293 99.4318C27.4293 99.3268 27.4608 99.2381 27.5238 99.1658C27.5891 99.0935 27.6848 99.0573 27.8107 99.0573C27.9344 99.0573 28.0289 99.0935 28.0942 99.1658C28.1619 99.2381 28.1957 99.3268 28.1957 99.4318C28.1957 99.5321 28.1619 99.6184 28.0942 99.6907C28.0289 99.7607 27.9344 99.7957 27.8107 99.7957C27.6848 99.7957 27.5891 99.7607 27.5238 99.6907C27.4608 99.6184 27.4293 99.5321 27.4293 99.4318ZM30.9078 103.761C31.0618 103.761 31.2041 103.729 31.3348 103.666C31.4654 103.603 31.5727 103.517 31.6567 103.407C31.7407 103.295 31.7886 103.168 31.8002 103.026H32.4161C32.4045 103.25 32.3286 103.459 32.1887 103.652C32.051 103.844 31.8702 103.999 31.6462 104.118C31.4223 104.234 31.1761 104.293 30.9078 104.293C30.6232 104.293 30.3747 104.242 30.1624 104.142C29.9525 104.042 29.7775 103.904 29.6375 103.729C29.4998 103.554 29.396 103.354 29.326 103.127C29.2584 102.899 29.2246 102.657 29.2246 102.403V102.256C29.2246 102.002 29.2584 101.761 29.326 101.535C29.396 101.306 29.4998 101.105 29.6375 100.93C29.7775 100.755 29.9525 100.617 30.1624 100.517C30.3747 100.416 30.6232 100.366 30.9078 100.366C31.2041 100.366 31.4631 100.427 31.6847 100.548C31.9064 100.667 32.0802 100.83 32.2062 101.038C32.3345 101.243 32.4045 101.477 32.4161 101.738H31.8002C31.7886 101.582 31.7442 101.441 31.6672 101.315C31.5926 101.189 31.4899 101.088 31.3593 101.014C31.231 100.937 31.0805 100.898 30.9078 100.898C30.7095 100.898 30.5427 100.938 30.4074 101.017C30.2744 101.094 30.1683 101.199 30.0889 101.332C30.012 101.463 29.956 101.608 29.921 101.769C29.8883 101.928 29.872 102.09 29.872 102.256V102.403C29.872 102.569 29.8883 102.732 29.921 102.893C29.9536 103.054 30.0085 103.2 30.0854 103.33C30.1648 103.461 30.2709 103.566 30.4039 103.645C30.5392 103.722 30.7072 103.761 30.9078 103.761ZM34.9393 104.293C34.6757 104.293 34.4365 104.248 34.2219 104.16C34.0096 104.069 33.8265 103.942 33.6725 103.778C33.5208 103.615 33.4042 103.421 33.3225 103.197C33.2409 102.973 33.2 102.728 33.2 102.462V102.315C33.2 102.007 33.2455 101.733 33.3365 101.493C33.4275 101.25 33.5512 101.045 33.7075 100.877C33.8638 100.709 34.0411 100.582 34.2394 100.496C34.4377 100.409 34.643 100.366 34.8553 100.366C35.126 100.366 35.3593 100.413 35.5552 100.506C35.7535 100.599 35.9157 100.73 36.0417 100.898C36.1677 101.064 36.261 101.26 36.3216 101.486C36.3823 101.71 36.4126 101.955 36.4126 102.221V102.511H33.585V101.983H35.7652V101.934C35.7559 101.766 35.7209 101.603 35.6602 101.444C35.6019 101.285 35.5086 101.155 35.3803 101.052C35.2519 100.949 35.077 100.898 34.8553 100.898C34.7083 100.898 34.573 100.93 34.4494 100.993C34.3257 101.053 34.2196 101.144 34.1309 101.266C34.0423 101.387 33.9734 101.535 33.9244 101.71C33.8754 101.885 33.851 102.087 33.851 102.315V102.462C33.851 102.642 33.8754 102.811 33.9244 102.97C33.9758 103.126 34.0493 103.264 34.1449 103.383C34.2429 103.502 34.3607 103.595 34.4984 103.663C34.6383 103.73 34.797 103.764 34.9743 103.764C35.2029 103.764 35.3966 103.718 35.5552 103.624C35.7139 103.531 35.8527 103.406 35.9717 103.25L36.3636 103.561C36.282 103.685 36.1781 103.803 36.0522 103.915C35.9262 104.027 35.771 104.118 35.5867 104.188C35.4048 104.258 35.1889 104.293 34.9393 104.293ZM39.5972 103.218C39.5972 103.125 39.5762 103.039 39.5342 102.959C39.4946 102.878 39.4117 102.804 39.2857 102.739C39.1621 102.671 38.9755 102.613 38.7258 102.564C38.5158 102.52 38.3257 102.467 38.1554 102.406C37.9874 102.346 37.8439 102.272 37.7249 102.186C37.6083 102.1 37.5185 101.998 37.4555 101.881C37.3925 101.765 37.361 101.628 37.361 101.472C37.361 101.323 37.3937 101.182 37.459 101.049C37.5266 100.916 37.6211 100.798 37.7424 100.695C37.8661 100.592 38.0142 100.512 38.1869 100.454C38.3595 100.395 38.552 100.366 38.7643 100.366C39.0676 100.366 39.3266 100.42 39.5412 100.527C39.7559 100.634 39.9203 100.778 40.0346 100.958C40.149 101.135 40.2061 101.332 40.2061 101.549H39.5587C39.5587 101.444 39.5272 101.343 39.4642 101.245C39.4036 101.144 39.3137 101.061 39.1948 100.996C39.0781 100.931 38.9346 100.898 38.7643 100.898C38.5847 100.898 38.4389 100.926 38.3269 100.982C38.2172 101.036 38.1367 101.105 38.0854 101.189C38.0364 101.273 38.0119 101.361 38.0119 101.455C38.0119 101.525 38.0236 101.587 38.0469 101.643C38.0726 101.697 38.1169 101.747 38.1799 101.794C38.2429 101.838 38.3315 101.88 38.4459 101.92C38.5602 101.96 38.706 101.999 38.8833 102.039C39.1936 102.109 39.4491 102.193 39.6497 102.291C39.8503 102.389 39.9997 102.509 40.0976 102.651C40.1956 102.794 40.2446 102.966 40.2446 103.169C40.2446 103.335 40.2096 103.487 40.1396 103.624C40.072 103.762 39.9728 103.881 39.8422 103.981C39.7139 104.079 39.5599 104.156 39.3802 104.212C39.2029 104.266 39.0034 104.293 38.7818 104.293C38.4482 104.293 38.1659 104.233 37.9349 104.114C37.704 103.995 37.529 103.841 37.41 103.652C37.291 103.463 37.2315 103.264 37.2315 103.054H37.8824C37.8918 103.231 37.9431 103.372 38.0364 103.477C38.1297 103.58 38.244 103.653 38.3794 103.698C38.5147 103.74 38.6488 103.761 38.7818 103.761C38.9591 103.761 39.1073 103.737 39.2263 103.691C39.3476 103.644 39.4397 103.58 39.5027 103.498C39.5657 103.417 39.5972 103.323 39.5972 103.218Z" fill="#F6F1F2"/>
<path d="M154.954 98.4747V104.223H153.91V99.6912L152.528 100.148V99.3054L154.836 98.4747H154.954Z" fill="#F6F1F2"/>
<path d="M239.465 98.4747V104.223H238.422V99.6912L237.04 100.148V99.3054L239.347 98.4747H239.465Z" fill="#F6F1F2"/>
<path d="M322.331 101.585L321.501 101.384L321.82 98.4904H324.973V99.3526H322.682L322.532 100.691C322.614 100.641 322.732 100.591 322.887 100.542C323.044 100.489 323.221 100.463 323.418 100.463C323.691 100.463 323.935 100.507 324.15 100.597C324.366 100.683 324.548 100.809 324.698 100.975C324.85 101.14 324.964 101.342 325.04 101.581C325.119 101.817 325.158 102.085 325.158 102.384C325.158 102.647 325.119 102.893 325.04 103.124C324.964 103.353 324.847 103.556 324.69 103.734C324.532 103.91 324.334 104.049 324.095 104.152C323.856 104.252 323.575 104.301 323.253 104.301C323.009 104.301 322.774 104.266 322.548 104.195C322.325 104.122 322.124 104.015 321.946 103.876C321.767 103.734 321.624 103.561 321.516 103.357C321.411 103.152 321.354 102.917 321.343 102.652H322.371C322.389 102.828 322.436 102.977 322.512 103.101C322.589 103.224 322.688 103.318 322.812 103.384C322.938 103.45 323.083 103.483 323.249 103.483C323.398 103.483 323.527 103.455 323.635 103.4C323.745 103.342 323.835 103.262 323.906 103.16C323.977 103.057 324.03 102.937 324.064 102.797C324.098 102.658 324.115 102.506 324.115 102.341C324.115 102.181 324.095 102.035 324.056 101.904C324.016 101.77 323.956 101.654 323.875 101.557C323.793 101.46 323.691 101.385 323.568 101.333C323.447 101.28 323.305 101.254 323.142 101.254C322.925 101.254 322.757 101.287 322.638 101.353C322.523 101.418 322.421 101.496 322.331 101.585Z" fill="#F6F1F2"/>
<defs>
<linearGradient id="paint0_linear_11044_3419" x1="14.334" y1="36.584" x2="355.666" y2="36.584" gradientUnits="userSpaceOnUse">
<stop stop-color="white" stop-opacity="0"/>
<stop offset="0.505" stop-color="#CDD8FF"/>
<stop offset="1" stop-color="white" stop-opacity="0"/>
</linearGradient>
<linearGradient id="paint1_linear_11044_3419" x1="14.334" y1="85.9727" x2="355.666" y2="85.9726" gradientUnits="userSpaceOnUse">
<stop stop-color="white" stop-opacity="0"/>
<stop offset="0.505" stop-color="#CDD8FF"/>
<stop offset="1" stop-color="white" stop-opacity="0"/>
</linearGradient>
</defs>
</svg>
