<svg xmlns="http://www.w3.org/2000/svg" width="16" height="17" viewBox="0 0 16 17" fill="none">
  <g clip-path="url(#clip0_11787_14885)">
    <path d="M6.00065 14.3319C6.00065 14.6986 6.30065 14.9986 6.66732 14.9986H9.33398C9.70065 14.9986 10.0007 14.6986 10.0007 14.3319V13.6653H6.00065V14.3319ZM8.00065 1.66528C5.42732 1.66528 3.33398 3.75862 3.33398 6.33195C3.33398 7.91862 4.12732 9.31195 5.33398 10.1586V11.6653C5.33398 12.0319 5.63398 12.3319 6.00065 12.3319H10.0007C10.3673 12.3319 10.6673 12.0319 10.6673 11.6653V10.1586C11.874 9.31195 12.6673 7.91862 12.6673 6.33195C12.6673 3.75862 10.574 1.66528 8.00065 1.66528ZM9.90065 9.06528L9.33398 9.46528V10.9986H6.66732V9.46528L6.10065 9.06528C5.20065 8.43862 4.66732 7.41862 4.66732 6.33195C4.66732 4.49195 6.16065 2.99862 8.00065 2.99862C9.84065 2.99862 11.334 4.49195 11.334 6.33195C11.334 7.41862 10.8007 8.43862 9.90065 9.06528Z" fill="#F6F1F2"/>
  </g>
  <defs>
    <clipPath id="clip0_11787_14885">
      <rect width="16" height="16" fill="white" transform="translate(0 0.331787)"/>
    </clipPath>
  </defs>
</svg>