<svg xmlns="http://www.w3.org/2000/svg" width="25" height="24" viewBox="0 0 25 24" fill="none">
  <path d="M19.6401 12.94C19.6801 12.64 19.7001 12.33 19.7001 12C19.7001 11.68 19.6801 11.36 19.6301 11.06L21.6601 9.48002C21.8401 9.34002 21.8901 9.07002 21.7801 8.87002L19.8601 5.55002C19.7401 5.33002 19.4901 5.26002 19.2701 5.33002L16.8801 6.29002C16.3801 5.91002 15.8501 5.59002 15.2601 5.35002L14.9001 2.81002C14.8601 2.57002 14.6601 2.40002 14.4201 2.40002H10.5801C10.3401 2.40002 10.1501 2.57002 10.1101 2.81002L9.75011 5.35002C9.16011 5.59002 8.62011 5.92002 8.13011 6.29002L5.74011 5.33002C5.52011 5.25002 5.27011 5.33002 5.15011 5.55002L3.24011 8.87002C3.12011 9.08002 3.16011 9.34002 3.36011 9.48002L5.39011 11.06C5.34011 11.36 5.30011 11.69 5.30011 12C5.30011 12.31 5.32011 12.64 5.37011 12.94L3.34011 14.52C3.16011 14.66 3.11011 14.93 3.22011 15.13L5.14011 18.45C5.26011 18.67 5.51011 18.74 5.73011 18.67L8.12011 17.71C8.62011 18.09 9.15011 18.41 9.74011 18.65L10.1001 21.19C10.1501 21.43 10.3401 21.6 10.5801 21.6H14.4201C14.6601 21.6 14.8601 21.43 14.8901 21.19L15.2501 18.65C15.8401 18.41 16.3801 18.09 16.8701 17.71L19.2601 18.67C19.4801 18.75 19.7301 18.67 19.8501 18.45L21.7701 15.13C21.8901 14.91 21.8401 14.66 21.6501 14.52L19.6401 12.94ZM12.5001 15.6C10.5201 15.6 8.90011 13.98 8.90011 12C8.90011 10.02 10.5201 8.40002 12.5001 8.40002C14.4801 8.40002 16.1001 10.02 16.1001 12C16.1001 13.98 14.4801 15.6 12.5001 15.6Z" fill="#989899"/>
</svg>