<svg width="25" height="25" viewBox="0 0 25 25" fill="none" xmlns="http://www.w3.org/2000/svg">
<g id="Group">
<path id="Vector" d="M19.64 13.3144C19.68 13.0144 19.7 12.7044 19.7 12.3744C19.7 12.0544 19.68 11.7344 19.63 11.4344L21.66 9.85441C21.84 9.71441 21.89 9.44441 21.78 9.24441L19.86 5.92441C19.74 5.70441 19.49 5.63441 19.27 5.70441L16.88 6.66441C16.38 6.28441 15.85 5.96441 15.26 5.72441L14.9 3.18441C14.86 2.94441 14.66 2.77441 14.42 2.77441H10.58C10.34 2.77441 10.15 2.94441 10.11 3.18441L9.74999 5.72441C9.15999 5.96441 8.61999 6.29441 8.12999 6.66441L5.73999 5.70441C5.51999 5.62441 5.26999 5.70441 5.14999 5.92441L3.23999 9.24441C3.11999 9.45441 3.15999 9.71441 3.35999 9.85441L5.38999 11.4344C5.33999 11.7344 5.29999 12.0644 5.29999 12.3744C5.29999 12.6844 5.31999 13.0144 5.36999 13.3144L3.33999 14.8944C3.15999 15.0344 3.10999 15.3044 3.21999 15.5044L5.13999 18.8244C5.25999 19.0444 5.50999 19.1144 5.72999 19.0444L8.11999 18.0844C8.61999 18.4644 9.14999 18.7844 9.73999 19.0244L10.1 21.5644C10.15 21.8044 10.34 21.9744 10.58 21.9744H14.42C14.66 21.9744 14.86 21.8044 14.89 21.5644L15.25 19.0244C15.84 18.7844 16.38 18.4644 16.87 18.0844L19.26 19.0444C19.48 19.1244 19.73 19.0444 19.85 18.8244L21.77 15.5044C21.89 15.2844 21.84 15.0344 21.65 14.8944L19.64 13.3144ZM12.5 15.9744C10.52 15.9744 8.89999 14.3544 8.89999 12.3744C8.89999 10.3944 10.52 8.77441 12.5 8.77441C14.48 8.77441 16.1 10.3944 16.1 12.3744C16.1 14.3544 14.48 15.9744 12.5 15.9744Z" fill="#989899"/>
</g>
</svg>
