<svg xmlns="http://www.w3.org/2000/svg" width="25" height="25" viewBox="0 0 25 25" fill="none">
  <path d="M19.6401 13.1485C19.6801 12.8485 19.7001 12.5385 19.7001 12.2085C19.7001 11.8885 19.6801 11.5685 19.6301 11.2685L21.6601 9.68852C21.8401 9.54852 21.8901 9.27852 21.7801 9.07852L19.8601 5.75852C19.7401 5.53852 19.4901 5.46852 19.2701 5.53852L16.8801 6.49852C16.3801 6.11852 15.8501 5.79852 15.2601 5.55852L14.9001 3.01852C14.8601 2.77852 14.6601 2.60852 14.4201 2.60852H10.5801C10.3401 2.60852 10.1501 2.77852 10.1101 3.01852L9.75011 5.55852C9.16011 5.79852 8.62011 6.12852 8.13011 6.49852L5.74011 5.53852C5.52011 5.45852 5.27011 5.53852 5.15011 5.75852L3.24011 9.07852C3.12011 9.28852 3.16011 9.54852 3.36011 9.68852L5.39011 11.2685C5.34011 11.5685 5.30011 11.8985 5.30011 12.2085C5.30011 12.5185 5.32011 12.8485 5.37011 13.1485L3.34011 14.7285C3.16011 14.8685 3.11011 15.1385 3.22011 15.3385L5.14011 18.6585C5.26011 18.8785 5.51011 18.9485 5.73011 18.8785L8.12011 17.9185C8.62011 18.2985 9.15011 18.6185 9.74011 18.8585L10.1001 21.3985C10.1501 21.6385 10.3401 21.8085 10.5801 21.8085H14.4201C14.6601 21.8085 14.8601 21.6385 14.8901 21.3985L15.2501 18.8585C15.8401 18.6185 16.3801 18.2985 16.8701 17.9185L19.2601 18.8785C19.4801 18.9585 19.7301 18.8785 19.8501 18.6585L21.7701 15.3385C21.8901 15.1185 21.8401 14.8685 21.6501 14.7285L19.6401 13.1485ZM12.5001 15.8085C10.5201 15.8085 8.90011 14.1885 8.90011 12.2085C8.90011 10.2285 10.5201 8.60852 12.5001 8.60852C14.4801 8.60852 16.1001 10.2285 16.1001 12.2085C16.1001 14.1885 14.4801 15.8085 12.5001 15.8085Z" fill="#9FBFE5" fill-opacity="0.996078"/>
</svg>