<svg width="25" height="25" viewBox="0 0 25 25" fill="none" xmlns="http://www.w3.org/2000/svg">
<g id="Group">
<path id="Vector" d="M19.64 13.523C19.68 13.223 19.7 12.913 19.7 12.583C19.7 12.263 19.68 11.943 19.63 11.643L21.66 10.063C21.84 9.92297 21.89 9.65297 21.78 9.45297L19.86 6.13297C19.74 5.91297 19.49 5.84297 19.27 5.91297L16.88 6.87297C16.38 6.49297 15.85 6.17297 15.26 5.93297L14.9 3.39297C14.86 3.15297 14.66 2.98297 14.42 2.98297H10.58C10.34 2.98297 10.15 3.15297 10.11 3.39297L9.74999 5.93297C9.15999 6.17297 8.61999 6.50297 8.12999 6.87297L5.73999 5.91297C5.51999 5.83297 5.26999 5.91297 5.14999 6.13297L3.23999 9.45297C3.11999 9.66297 3.15999 9.92297 3.35999 10.063L5.38999 11.643C5.33999 11.943 5.29999 12.273 5.29999 12.583C5.29999 12.893 5.31999 13.223 5.36999 13.523L3.33999 15.103C3.15999 15.243 3.10999 15.513 3.21999 15.713L5.13999 19.033C5.25999 19.253 5.50999 19.323 5.72999 19.253L8.11999 18.293C8.61999 18.673 9.14999 18.993 9.73999 19.233L10.1 21.773C10.15 22.013 10.34 22.183 10.58 22.183H14.42C14.66 22.183 14.86 22.013 14.89 21.773L15.25 19.233C15.84 18.993 16.38 18.673 16.87 18.293L19.26 19.253C19.48 19.333 19.73 19.253 19.85 19.033L21.77 15.713C21.89 15.493 21.84 15.243 21.65 15.103L19.64 13.523ZM12.5 16.183C10.52 16.183 8.89999 14.563 8.89999 12.583C8.89999 10.603 10.52 8.98297 12.5 8.98297C14.48 8.98297 16.1 10.603 16.1 12.583C16.1 14.563 14.48 16.183 12.5 16.183Z" fill="#9FBFE5" fill-opacity="0.996078"/>
</g>
</svg>
