<?xml version="1.0" encoding="UTF-8"?>
<svg id="Layer_1" data-name="Layer 1" xmlns="http://www.w3.org/2000/svg" viewBox="0 0 23.06 23.02">
  <defs>
    <style>
      .cls-1 {
        fill: #fff;
      }

      .cls-2 {
        fill: #12161c;
      }

      .cls-3 {
        fill: #0052ff;
      }
    </style>
  </defs>
  <path class="cls-2" d="M4.78,10.94c0-.13.03-.26.07-.38.05-.12.12-.23.21-.32s.2-.16.32-.21.25-.07.38-.07h1.63c.26,0,.51.11.69.29s.29.43.29.69v6.16c.18-.05.42-.11.68-.17.18-.04.34-.14.45-.29.11-.14.18-.32.18-.51v-7.64c0-.26.1-.51.29-.69.18-.18.43-.29.69-.29h1.63c.26,0,.51.1.69.29.18.18.29.43.29.69v7.09s.41-.17.81-.33c.15-.06.27-.17.36-.3.09-.13.14-.29.14-.45V6.06c0-.26.1-.51.29-.69s.43-.29.69-.29h1.63c.26,0,.51.1.69.29.18.18.29.43.29.69v6.96c1.41-1.02,2.85-2.26,3.98-3.74.16-.22.27-.47.32-.74.04-.27.02-.54-.07-.8-.53-1.51-1.36-2.9-2.46-4.08-1.09-1.17-2.42-2.1-3.89-2.73C14.58.3,12.99-.02,11.38,0c-1.6.02-3.19.37-4.64,1.04-1.46.67-2.76,1.63-3.83,2.83-1.07,1.2-1.87,2.61-2.36,4.13C.06,9.53-.11,11.14.06,12.73s.67,3.14,1.47,4.53c.14.24.34.44.59.56.25.13.52.18.8.16.31-.03.69-.07,1.15-.12.2-.02.38-.12.52-.27.13-.15.21-.34.21-.54v-6.11"/>
  <path class="cls-3" d="M4.75,20.81c1.72,1.25,3.75,2,5.87,2.17,2.12.17,4.24-.25,6.14-1.22,1.89-.96,3.49-2.44,4.6-4.25s1.7-3.9,1.7-6.02c0-.27-.01-.53-.03-.79-4.21,6.28-11.99,9.22-18.27,10.11h0Z"/>
  <path class="cls-1" d="M4.82,10.95c0-.13.03-.25.07-.37.05-.12.12-.23.21-.32.09-.09.2-.16.32-.21s.25-.07.37-.07h1.62c.26,0,.51.11.69.29s.29.43.29.69v6.12c.18-.05.42-.11.67-.17.18-.04.34-.14.45-.29.11-.14.18-.32.18-.5v-7.6c0-.26.1-.51.29-.69.18-.18.43-.29.69-.29h1.62c.26,0,.51.1.69.29.18.18.29.43.29.69v7.05s.41-.16.8-.33c.15-.06.27-.17.36-.3.09-.13.14-.29.14-.45V6.08c0-.26.1-.51.29-.69s.43-.29.69-.29h1.62c.26,0,.51.1.69.29.18.18.28.43.28.69v6.92c1.41-1.02,2.83-2.25,3.96-3.72.16-.21.27-.47.32-.73.04-.27.02-.54-.07-.79-.52-1.51-1.36-2.89-2.44-4.05-1.09-1.17-2.41-2.09-3.87-2.72C14.55.36,12.97.04,11.38.06c-1.59.02-3.17.37-4.62,1.03-1.45.66-2.75,1.62-3.81,2.81-1.06,1.19-1.86,2.59-2.35,4.11C.11,9.54-.05,11.14.12,12.73c.17,1.59.66,3.12,1.46,4.5.14.24.34.43.59.56.24.13.52.18.8.16.31-.03.69-.07,1.14-.12.2-.02.38-.12.51-.27.13-.15.21-.34.21-.54v-6.08"/>
  <path class="cls-3" d="M4.79,20.77c1.71,1.24,3.73,1.99,5.84,2.16,2.11.17,4.22-.25,6.11-1.21,1.88-.96,3.47-2.42,4.57-4.23,1.11-1.8,1.69-3.88,1.69-5.99,0-.26-.01-.53-.03-.78-4.19,6.25-11.92,9.17-18.18,10.06Z"/>
</svg>