<?xml version="1.0" encoding="UTF-8"?>
<svg id="Layer_1" xmlns="http://www.w3.org/2000/svg" version="1.1" viewBox="0 0 24 24">
  <!-- Generator: Adobe Illustrator 30.0.0, SVG Export Plug-In . SVG Version: 2.1.1 Build 123)  -->
  <defs>
    <style>
      .st0 {
        fill: none;
      }

      .st1 {
        fill: #9fbfe5;
      }

      .st2 {
        fill: #00b200;
      }
    </style>
  </defs>
  <path class="st0" d="M14.67,6.12h-.5v1h.49c.52,0,1.04.12,1.51.35v-1.09c-.48-.17-.99-.26-1.5-.26ZM19.17,10.12v.05"/>
  <path class="st1" d="M9.52,7.12c-.23.64-.35,1.32-.35,2,0,.34.03.67.09,1H2.17c.26-2.29,2.2-4.01,4.5-4h3.31c-.19.31-.35.65-.46,1Z"/>
  <path class="st2" d="M18.17,3.92c-1.86-1.07-4.14-1.07-5.99,0-.32.17-.63.39-.9.64-.52.44-.96.97-1.3,1.56-.17.29-.31.6-.42.91-.13.32-.22.65-.27,1-.46,2.5.69,5.02,2.89,6.29.91.53,1.95.81,3,.8.41,0,.83-.04,1.23-.13,3.24-.69,5.31-3.87,4.62-7.12-.35-1.66-1.39-3.09-2.86-3.94ZM18.15,13.15c-.7.51-1.52.83-2.38.94-1.07.13-2.16-.09-3.1-.63-1.73-.99-2.7-2.91-2.48-4.89.04-.35.12-.69.23-1.02.1-.32.24-.63.41-.92.34-.59.81-1.11,1.36-1.53.31-.23.65-.42,1.01-.57,2.54-1.08,5.48.09,6.56,2.63.62,1.45.52,3.1-.27,4.46-.17.29-.36.57-.59.82-.23.26-.49.5-.77.71Z"/>
  <path class="st1" d="M19.17,13.58v3c.02,2.49-1.99,4.52-4.48,4.54,0,0-.01,0-.02,0H6.67c-2.48,0-4.49-2.02-4.5-4.5v-5.5h7.35c.85,2.39,3.11,4,5.65,4,1.05,0,2.09-.27,3-.81.36-.2.7-.45,1-.73Z"/>
  <path d="M15.71,12.8l-.07.05h-.11c.06,0,.12-.03.18-.05Z"/>
  <path class="st2" d="M18.74,10.38c-.14-.53-.69-.85-1.22-.7l-1.74.4,1.76-3.06c.28-.48.11-1.09-.37-1.37s-1.09-.11-1.37.37l-1.76,3.06-.51-1.74c-.11-.54-.65-.89-1.19-.77-.54.11-.89.65-.77,1.19.01.05.02.1.04.14l1.16,3.99c.15.51.68.82,1.2.69l4.04-.99c.53-.13.86-.67.73-1.21Z"/>
</svg>