<svg xmlns="http://www.w3.org/2000/svg" width="18" height="19" viewBox="0 0 18 19" fill="none">
  <g clip-path="url(#clip0_10893_19020)">
    <path d="M9 18.5C13.9706 18.5 18 14.4706 18 9.5C18 4.52944 13.9706 0.5 9 0.5C4.02944 0.5 0 4.52944 0 9.5C0 14.4706 4.02944 18.5 9 18.5Z" fill="#627EEA"/>
    <path d="M9.28125 2.75V7.73938L13.4983 9.62377L9.28125 2.75Z" fill="white" fill-opacity="0.602"/>
    <path d="M9.28012 2.75L5.0625 9.62377L9.28012 7.73938V2.75Z" fill="white"/>
    <path d="M9.28125 12.8601V16.2503L13.5011 10.4121L9.28125 12.8601Z" fill="white" fill-opacity="0.602"/>
    <path d="M9.28012 16.2503V12.8595L5.0625 10.4121L9.28012 16.2503Z" fill="white"/>
    <path d="M9.28125 12.072L13.4983 9.62347L9.28125 7.74023V12.072Z" fill="white" fill-opacity="0.2"/>
    <path d="M5.0625 9.62347L9.28012 12.072V7.74023L5.0625 9.62347Z" fill="white" fill-opacity="0.602"/>
  </g>
  <defs>
    <clipPath id="clip0_10893_19020">
      <rect width="18" height="18" fill="white" transform="translate(0 0.5)"/>
    </clipPath>
  </defs>
</svg>